SplineFontDB: 3.2
FontName: FRBAvantGarde-Bold
FullName: FRB Avant Garde Bold
FamilyName: FRB Avant Garde
Weight: Bold
Copyright: Copyright (URW)++,Copyright 1999 by (URW)++ Design & Development
Version: 1.05
ItalicAngle: 0
UnderlinePosition: -93
UnderlineWidth: 90
Ascent: 800
Descent: 200
InvalidEm: 0
LayerCount: 2
Layer: 0 0 "Back" 1
Layer: 1 0 "Fore" 0
UniqueID: 5019556
FSType: 0
OS2Version: 0
OS2_WeightWidthSlopeOnly: 0
OS2_UseTypoMetrics: 0
CreationTime: 1591545468
ModificationTime: 1605845971
PfmFamily: 17
TTFWeight: 700
TTFWidth: 5
LineGap: 90
VLineGap: 0
OS2TypoAscent: 0
OS2TypoAOffset: 1
OS2TypoDescent: 0
OS2TypoDOffset: 1
OS2TypoLinegap: 90
OS2WinAscent: 0
OS2WinAOffset: 1
OS2WinDescent: 0
OS2WinDOffset: 1
HheadAscent: 0
HheadAOffset: 1
HheadDescent: 0
HheadDOffset: 1
OS2Vendor: 'QQQQ'
MarkAttachClasses: 1
DEI: 91125
LangName: 1033
Encoding: Custom
UnicodeInterp: none
NameList: AGL For New Fonts
DisplaySize: -96
AntiAlias: 1
FitToEm: 0
WinInfo: 56 8 2
BeginPrivate: 7
BlueValues 23 [-20 0 554 574 739 759]
BlueScale 8 0.039625
StdHW 5 [123]
StdVW 5 [134]
StemSnapH 200 [113 123 129 133] 
systemdict /internaldict known
{1183615869 systemdict /internaldict get exec
/StemSnapLength 2 copy known { get 4 lt } { pop pop true } ifelse }
{ true } ifelse { pop [123 133] } if
StemSnapV 9 [134 138]
ForceBold 5 false
EndPrivate
BeginChars: 168 168

StartChar: A
Encoding: 33 65 0
GlifName: A_
Width: 740
Flags: MW
HStem: 0 20 191 131<290 448 290 503 240 448> 719 20<315 423 423 423>
LayerCount: 2
Fore
SplineSet
7 0 m 1
 315 739 l 1
 423 739 l 1
 733 0 l 1
 582 0 l 1
 503 191 l 1
 240 191 l 1
 158 0 l 1
 7 0 l 1
290 322 m 1
 448 322 l 1
 369 546 l 1
 290 322 l 1
EndSplineSet
EndChar

StartChar: B
Encoding: 34 66 1
GlifName: B_
Width: 580
Flags: HW
HStem: 0 131<205 265> 320 134<205 249 249 270 205 249> 719 20<68 220 220 275>
VStem: 68 137<131 131 131 320 454 605> 367 137<507.5 555.5> 410 138<191 243 182 256>
LayerCount: 2
Fore
SplineSet
68 0 m 1xf4
 68 739 l 1
 220 739 l 2
 330 739 376 731 420 703 c 0
 473 669 504 611 504 542 c 0xf8
 504 473 481 434 422 403 c 1
 502.564662727 369.43139053 548 322.643184485 548 220 c 0
 548 144 513 78 452 41 c 0
 407 13 347 0 265 0 c 2
 68 0 l 1xf4
205 131 m 1
 273 131 l 2
 312.175016717 131 342.191232824 135.662662128 364.000001796 145.53161694 c 4
 395.634523901 159.846944392 410 185.116677811 410 223 c 0xf4
 410 264.266976255 392.407403623 291.850821995 356 306.729305917 c 0
 334.179521254 315.646603221 305.600564481 320 270 320 c 2
 205 320 l 1
 205 131 l 1
205 454 m 1
 249 454 l 2
 284.391321948 454 311.055369673 458.181818899 330.000001366 467.088149568 c 0
 355.484465393 479.069013975 367 499.59927787 367 530 c 0xf8
 367 560.189479948 354.73580758 580.918011458 330 592.807862751 c 0
 312.948860977 601.003896242 289.971508307 605 261 605 c 2
 205 605 l 1
 205 454 l 1
EndSplineSet
EndChar

StartChar: C
Encoding: 35 67 2
GlifName: C_
Width: 780
Flags: HMW
HStem: -13 132<348 451.5 348 494.5> 620 132<375.5 455 305.5 456>
VStem: 30 138<302 401 302 476.5>
LayerCount: 2
Fore
SplineSet
599 206 m 1
 760 206 l 1
 702 71 570 -13 419 -13 c 0
 203 -13 30 159 30 372 c 0
 30 581 201 752 410 752 c 0
 576.912963778 752 702.567952296 653.746588035 760 527 c 1
 607 527 l 1
 557 592 499 620 413 620 c 0
 274.149270132 620 168 511.695614486 168 371 c 0
 168 233 280 119 416 119 c 0
 487 119 539 143 599 206 c 1
EndSplineSet
EndChar

StartChar: D
Encoding: 36 68 3
GlifName: D_
Width: 700
Flags: MW
HStem: 0 131<205 235 235 240> 608 131<205 232 205 205>
VStem: 68 137<131 131 131 608> 522 138<323.5 415.5>
LayerCount: 2
Fore
SplineSet
68 0 m 1
 68 739 l 1
 237 739 l 2
 353 739 441 721 499 686 c 0
 602 624 660 508 660 368 c 0
 660 219 593 97 479 41 c 0
 419 11 352 0 240 0 c 2
 68 0 l 1
205 131 m 1
 235 131 l 2
 317 131 374 141 415 164 c 0
 481 200 522 279 522 368 c 0
 522 463 479 542 409 578 c 0
 366 600 319 608 232 608 c 2
 205 608 l 1
 205 131 l 1
EndSplineSet
EndChar

StartChar: E
Encoding: 37 69 4
GlifName: E_
Width: 520
Flags: MW
HStem: 0 131<205 465 205 465> 303 131<205 454 205 454> 608 131<205 465 205 205>
VStem: 68 137<131 303 434 608>
LayerCount: 2
Fore
SplineSet
68 0 m 1
 68 739 l 1
 465 739 l 1
 465 608 l 1
 205 608 l 1
 205 434 l 1
 454 434 l 1
 454 303 l 1
 205 303 l 1
 205 131 l 1
 465 131 l 1
 465 0 l 1
 68 0 l 1
EndSplineSet
EndChar

StartChar: F
Encoding: 38 70 5
GlifName: F_
Width: 480
Flags: MW
HStem: 0 20 303 131<205 433 205 433> 608 131<205 444 205 205>
VStem: 68 137<0 303 434 608>
LayerCount: 2
Fore
SplineSet
68 0 m 1
 68 739 l 1
 444 739 l 1
 444 608 l 1
 205 608 l 1
 205 434 l 1
 433 434 l 1
 433 303 l 1
 205 303 l 1
 205 0 l 1
 68 0 l 1
EndSplineSet
EndChar

StartChar: G
Encoding: 39 71 6
GlifName: G_
Width: 840
Flags: HMW
HStem: -13 132<351.5 472.5 351.5 487.5> 249 128<335 818 335 641> 620 132<380.5 459>
VStem: 30 138<298.5 401 298.5 477>
LayerCount: 2
Fore
SplineSet
335 377 m 1
 818 377 l 1
 818 267.796273986 786.024556172 178.290345415 712 101 c 0
 639 26 543 -13 432 -13 c 0
 205 -13 30 155 30 371 c 0
 30 583 203 752 419 752 c 0
 580 752 732 655 780 522 c 1
 619 522 l 1
 573 586 502 620 416 620 c 0
 273.161191898 620 168 510.001405444 168 369 c 0
 168 228 279 119 424 119 c 0
 521 119 601 167 641 249 c 1
 335 249 l 1
 335 377 l 1
EndSplineSet
EndChar

StartChar: H
Encoding: 40 72 7
GlifName: H_
Width: 680
Flags: MW
HStem: 0 20 310 131<205 469 205 469> 719 20<68 205 205 205 469 606 606 606>
VStem: 68 137<0 310 441 739> 469 137<0 310 310 310 441 739 0 739>
LayerCount: 2
Fore
SplineSet
68 0 m 1
 68 739 l 1
 205 739 l 1
 205 441 l 1
 469 441 l 1
 469 739 l 1
 606 739 l 1
 606 0 l 1
 469 0 l 1
 469 310 l 1
 205 310 l 1
 205 0 l 1
 68 0 l 1
EndSplineSet
EndChar

StartChar: I
Encoding: 41 73 8
GlifName: I_
Width: 280
Flags: MW
HStem: 0 20 719 20<68 205 205 205>
VStem: 68 137<0 739 0 739>
LayerCount: 2
Fore
SplineSet
68 0 m 1
 68 739 l 1
 205 739 l 1
 205 0 l 1
 68 0 l 1
EndSplineSet
EndChar

StartChar: J
Encoding: 42 74 9
GlifName: J_
Width: 480
Flags: HMW
HStem: -13 132<194 233 194 276> 719 20<277 414 414 414>
VStem: 277 137<216 739>
LayerCount: 2
Fore
SplineSet
277 739 m 1
 414 739 l 1
 414 212 l 2
 414 73 338 -13 214 -13 c 0
 97.8509220365 -13 20.9267202427 59.7083709868 9 175 c 1
 146 175 l 1
 155 138 177 119 211 119 c 0
 255 119 277 151 277 216 c 2
 277 739 l 1
EndSplineSet
EndChar

StartChar: K
Encoding: 43 75 10
GlifName: K_
Width: 620
Flags: HMW
HStem: 0 20 719 20<68 205 205 205 434 599 599 599>
VStem: 68 137<0 325 420 739>
LayerCount: 2
Fore
SplineSet
68 0 m 1
 68 739 l 1
 205 739 l 1
 205 420 l 1
 434 739 l 1
 599 739 l 1
 321 376 l 1
 599 0 l 1
 434 0 l 1
 205 325 l 5
 205 325 l 1
 205 0 l 1
 68 0 l 1
EndSplineSet
EndChar

StartChar: L
Encoding: 44 76 11
GlifName: L_
Width: 440
Flags: MW
HStem: 0 131<205 431 205 431> 719 20<68 205 205 205>
VStem: 68 137<131 739 131 739 131 739>
LayerCount: 2
Fore
SplineSet
68 0 m 1
 68 739 l 1
 205 739 l 1
 205 131 l 1
 431 131 l 1
 431 0 l 1
 68 0 l 1
EndSplineSet
EndChar

StartChar: M
Encoding: 45 77 12
GlifName: M_
Width: 900
Flags: MW
HStem: 0 20 719 20<68 256 256 256 652 840 840 840>
VStem: 68 137<0 554 0 739> 703 137<0 554 554 554>
LayerCount: 2
Fore
SplineSet
68 0 m 1
 68 739 l 1
 256 739 l 1
 455 179 l 1
 652 739 l 1
 840 739 l 1
 840 0 l 1
 703 0 l 1
 703 554 l 1
 510 0 l 1
 398 0 l 1
 205 554 l 1
 205 0 l 1
 68 0 l 1
EndSplineSet
EndChar

StartChar: N
Encoding: 46 78 13
GlifName: N_
Width: 740
Flags: MW
HStem: 0 20 719 20<68 224 224 224 530 667 667 667>
VStem: 68 137<0 537 0 739> 530 137<201 739 0 739>
LayerCount: 2
Fore
SplineSet
68 0 m 1
 68 739 l 1
 224 739 l 1
 530 201 l 1
 530 739 l 1
 667 739 l 1
 667 0 l 1
 514 0 l 1
 205 537 l 1
 205 0 l 1
 68 0 l 1
EndSplineSet
EndChar

StartChar: O
Encoding: 47 79 14
GlifName: O_
Width: 840
Flags: MW
HStem: -13 132<348 488 348 526.5> 620 132<347 486.5>
VStem: 30 138<299 440.5 299 477> 662 138<297 439>
LayerCount: 2
Fore
SplineSet
420 752 m 0
 631 752 800 581 800 370 c 0
 800 154 634 -13 419 -13 c 0
 202 -13 30 156 30 369 c 0
 30 585 200 752 420 752 c 0
418 620 m 0
 276 620 168 512 168 369 c 0
 168 229 278 119 418 119 c 0
 558 119 662 226 662 368 c 0
 662 510 555 620 418 620 c 0
EndSplineSet
EndChar

StartChar: P
Encoding: 48 80 15
GlifName: P_
Width: 560
Flags: MW
HStem: 0 20 281 131<205 245 245 249 205 245> 608 131<205 251 205 205>
VStem: 68 137<0 281 412 608> 402 138<491 532>
LayerCount: 2
Fore
SplineSet
68 0 m 1
 68 739 l 1
 251 739 l 2
 349 739 398 730 440 705 c 0
 504 666 540 596 540 511 c 0
 540 426 503 351 443 314 c 0
 402 289 354 281 249 281 c 2
 205 281 l 1
 205 0 l 1
 68 0 l 1
205 412 m 1
 245 412 l 2
 298 412 336 418 357 429 c 0
 386 445 402 473 402 509 c 0
 402 555 378 590 338 601 c 0
 316 606 296 608 251 608 c 2
 205 608 l 1
 205 412 l 1
EndSplineSet
EndChar

StartChar: Q
Encoding: 49 81 16
GlifName: Q_
Width: 840
Flags: HW
HStem: -15 122<789 804.5 789 812> -13 132<383.5 448.5 383.5 467.5> 235 112<270 322.5> 620 132<349.5 495>
VStem: 30 137<364.5 440.5 364.5 477.5> 677 138<330.5 437.5>
LayerCount: 2
Fore
SplineSet
828 110 m 1x9c
 828 -14 l 1
 820 -15 814 -15 810 -15 c 0x8c
 746 -15 698 2 635 45 c 1
 583 9 505 -13 430 -13 c 0x4c
 207 -13 30 157 30 370 c 0
 30 585 202 752 424 752 c 0
 648 752 815 587 815 366 c 0
 815 268 786 191 726 129 c 1
 757 113 777 107 801 107 c 0
 808 107 814 108 828 110 c 1x9c
211 227 m 1
 267 153 337 119 430 119 c 0
 467 119 488 124 519 138 c 1x7c
 434 206 363 235 282 235 c 0
 258 235 243 233 211 227 c 1
169 334 m 1
 203 343 239 347 283 347 c 0
 357.858300889 347 435.936231316 325.267500614 505.999994824 286.653459405 c 4
 546.37854694 264.399743684 584.095314237 236.539078143 617 204 c 1
 657 245 677 297 677 364 c 0
 677 511 568 620 422 620 c 0
 277 620 167 512 167 369 c 0
 167 360 167 352 169 334 c 1
EndSplineSet
EndChar

StartChar: R
Encoding: 50 82 17
GlifName: R_
Width: 580
Flags: HMW
HStem: 0 20 608 131<205 266 205 205>
VStem: 68 137<0 283 386 608> 423 138<465.5 516>
LayerCount: 2
Fore
SplineSet
368 273 m 5
 568 0 l 1
 399 0 l 1
 134 386 l 1
 272 386 l 2
 356 386 423 420 423 498 c 0
 423 534 411 563 387 582 c 0
 365 601 330 608 266 608 c 2
 205 608 l 9
 205 0 l 17
 68 0 l 1
 68 739 l 1
 281 739 l 2
 382 739 435 725 483 684 c 0
 534 641 561 577 561 502 c 0
 561 373.383373668 483.596637668 301.39215662 368 273 c 5
EndSplineSet
EndChar

StartChar: S
Encoding: 51 83 18
GlifName: S_
Width: 520
Flags: HMW
HStem: -13 132<226.5 286.5 226.5 323.5> 620 132<232.5 278>
VStem: 41 138<531.5 567 531.5 600.5> 357 136<182.5 224.5>
LayerCount: 2
Fore
SplineSet
14 211 m 5
 157 211 l 5
 163 149 196 119 257 119 c 4
 316 119 357 156 357 209 c 4
 357 240 345 266 323 284 c 4
 300 301 294 304 195 341 c 4
 150.709308333 357.553086785 115.225195199 380.911256982 89.5326339687 409.999994188 c 4
 57.7963435366 445.931352063 41 490.606407324 41 542 c 4
 41 659 137 752 256 752 c 4
 378.581082975 752 468.28495628 667.34748277 475 542 c 5
 333 542 l 5
 329 592 301 620 255 620 c 4
 210 620 179 589 179 545 c 4
 179 518 193 495 220 478 c 4
 230 472 232 471 302 445 c 4
 374 418 398 405 427 378 c 4
 470 338 493 285 493 224 c 4
 493 90 390 -13 257 -13 c 4
 179 -13 106 20 62 77 c 4
 32 116 19 153 14 211 c 5
EndSplineSet
EndChar

StartChar: T
Encoding: 52 84 19
GlifName: T_
Width: 420
Flags: MW
HStem: 0 20 608 131<7 144 7 418 281 281 281 418>
VStem: 144 137<0 608 0 608>
LayerCount: 2
Fore
SplineSet
144 0 m 1
 144 608 l 1
 7 608 l 1
 7 739 l 1
 418 739 l 1
 418 608 l 1
 281 608 l 1
 281 0 l 1
 144 0 l 1
EndSplineSet
EndChar

StartChar: U
Encoding: 53 85 20
GlifName: U_
Width: 640
Flags: MW
HStem: -13 132<298 337.5 298 357> 719 20<68 205 205 205 430 567 567 567>
VStem: 68 137<271 739> 430 137<271 739>
LayerCount: 2
Fore
SplineSet
68 739 m 1
 205 739 l 1
 205 271 l 2
 205 216 209 193 223 169 c 0
 242 138 278 119 318 119 c 0
 357 119 393 138 412 169 c 0
 426 193 430 216 430 271 c 2
 430 739 l 1
 567 739 l 1
 567 271 l 2
 567 185 553 130 517 82 c 0
 473 23 397 -13 317 -13 c 0
 231 -13 151 29 108 97 c 0
 80 142 68 192 68 271 c 2
 68 739 l 1
EndSplineSet
EndChar

StartChar: V
Encoding: 54 86 21
GlifName: V_
Width: 700
Flags: MW
HStem: 0 20 719 20<8 152 152 152 550 694 694 694>
LayerCount: 2
Fore
SplineSet
296 0 m 1
 8 739 l 1
 152 739 l 1
 351 177 l 1
 550 739 l 1
 694 739 l 1
 408 0 l 1
 296 0 l 1
EndSplineSet
EndChar

StartChar: W
Encoding: 55 87 22
GlifName: W_
Width: 900
Flags: MW
HStem: 0 20 719 20<7 147 147 147 403 503 503 503 758 898 898 898>
LayerCount: 2
Fore
SplineSet
224 0 m 1
 7 739 l 1
 147 739 l 1
 277 223 l 1
 403 739 l 1
 503 739 l 1
 627 223 l 1
 758 739 l 1
 898 739 l 1
 682 0 l 1
 573 0 l 1
 454 489 l 1
 332 0 l 1
 224 0 l 1
EndSplineSet
EndChar

StartChar: X
Encoding: 56 88 23
GlifName: X_
Width: 680
Flags: MW
HStem: 0 20 719 20<5 168 168 168 517 676 676 676>
LayerCount: 2
Fore
SplineSet
5 0 m 1
 259 368 l 1
 5 739 l 1
 168 739 l 1
 340 481 l 1
 517 739 l 1
 676 739 l 1
 420 368 l 1
 676 0 l 1
 517 0 l 1
 340 255 l 1
 168 0 l 1
 5 0 l 1
EndSplineSet
EndChar

StartChar: Y
Encoding: 57 89 24
GlifName: Y_
Width: 620
Flags: MW
HStem: 0 20 719 20<3 151 151 151 478 626 626 626>
VStem: 246 137<0 273 0 273>
LayerCount: 2
Fore
SplineSet
246 0 m 1
 246 273 l 1
 3 739 l 1
 151 739 l 1
 315 399 l 1
 478 739 l 1
 626 739 l 1
 383 273 l 1
 383 0 l 1
 246 0 l 1
EndSplineSet
EndChar

StartChar: Z
Encoding: 58 90 25
GlifName: Z_
Width: 500
Flags: HMWO
HStem: 0 131<183 480 183 480> 608 131<33 298 33 461>
LayerCount: 2
Fore
SplineSet
18 0 m 5
 18 116 l 1
 298 608 l 1
 33 608 l 1
 33 739 l 1
 461 739 l 1
 461 616 l 1
 183 131 l 1
 480 131 l 1
 480 0 l 1
 18 0 l 5
EndSplineSet
EndChar

StartChar: Thorn
Encoding: 122 222 26
GlifName: T_horn
Width: 560
Flags: MW
HStem: 0 20 149 131<205 245 245 249 205 245> 477 131<205 251 205 251> 719 20<68 205 205 205>
VStem: 68 137<0 149 280 477 608 739> 402 138<359 400.5>
LayerCount: 2
Fore
SplineSet
68 0 m 1
 68 739 l 1
 205 739 l 1
 205 608 l 1
 251 608 l 2
 349 608 398 599 440 574 c 0
 504 535 540 465 540 380 c 0
 540 294 503 220 443 182 c 0
 402 157 354 149 249 149 c 2
 205 149 l 1
 205 0 l 1
 68 0 l 1
205 280 m 1
 245 280 l 2
 299 280 336 286 357 297 c 0
 386 313 402 341 402 377 c 0
 402 424 378 459 338 470 c 0
 317 475 296 477 251 477 c 2
 205 477 l 1
 205 280 l 1
EndSplineSet
EndChar

StartChar: a
Encoding: 65 97 27
GlifName: a
Width: 660
Flags: HW
HStem: -13 122<279.5 348> 445 122<278.5 352 230 373.5> 534 20<493 615 615 615>
VStem: 30 134<223.5 322.5 223.5 359.5> 493 122<0 72 72 72 480 554 0 554>
LayerCount: 2
Fore
SplineSet
615 554 m 1x38
 615 0 l 1
 493 0 l 1
 493 72 l 1
 440 12 387 -13 309 -13 c 0
 147 -13 30 108 30 275 c 0
 30 444 148 567 312 567 c 0xd8
 392 567 447 541 493 480 c 1
 493 554 l 1
 615 554 l 1x38
326 445 m 0xd8
 231 445 164 373 164 272 c 0
 164 175 231 109 328 109 c 0
 425.103485076 109 489 177.686595907 489 273 c 0
 489 374 421 445 326 445 c 0xd8
EndSplineSet
EndChar

StartChar: b
Encoding: 66 98 28
GlifName: b
Width: 660
Flags: HMW
HStem: -13 122<327 390.5 295 411> 452 122<323 387.5> 719 20<54 187 187 187>
VStem: 54 133<503 739 503 739 503 739> 504 134<244 329.5>
LayerCount: 2
Fore
SplineSet
54 0 m 1
 54 739 l 1
 187 739 l 1
 187 503 l 1
 238 554 287 574 359 574 c 0
 518 574 638 448 638 281 c 0
 638 117.165253673 526.599647638 -13 368 -13 c 4
 286 -13 233 10 176 71 c 1
 176 0 l 1
 54 0 l 1
340 452 m 0
 247 452 179 381 179 281 c 0
 179 180 247 109 343 109 c 0
 438 109 504 179 504 280 c 0
 504 379 435 452 340 452 c 0
EndSplineSet
EndChar

StartChar: c
Encoding: 67 99 29
GlifName: c
Width: 640
Flags: HMW
HStem: -13 122<279 352.5 279 390.5> 445 122<276 352>
VStem: 30 134<229.5 326.5 229.5 358.5>
LayerCount: 2
Fore
SplineSet
451 182 m 1
 601 182 l 1
 555 58 455 -13 326 -13 c 0
 162 -13 30 116 30 277 c 0
 30 440 158 567 322 567 c 0
 399 567 472 539 526 489 c 4
 564 454 582 425 601 369 c 1
 451 369 l 1
 424 420 382 445 322 445 c 0
 230 445 164 375 164 278 c 0
 164 181 233 109 325 109 c 0
 380 109 418 131 451 182 c 1
EndSplineSet
EndChar

StartChar: d
Encoding: 68 100 30
GlifName: d
Width: 660
Flags: MW
HStem: -13 122<282.5 345.5> 452 122<280.5 342 229.5 372.5> 719 20<480 613 613 613>
VStem: 30 134<235 331 235 361> 480 133<505 739 0 739>
LayerCount: 2
Fore
SplineSet
613 739 m 1
 613 0 l 1
 491 0 l 1
 491 72 l 1
 438 12 383 -13 308 -13 c 0
 151 -13 30 114 30 278 c 0
 30 444 152 574 307 574 c 0
 377 574 441 548 480 505 c 1
 480 739 l 1
 613 739 l 1
326 452 m 0
 235 452 164 378 164 284 c 0
 164 186 236 109 329 109 c 0
 419 109 490 184 490 280 c 0
 490 377 419 452 326 452 c 0
EndSplineSet
EndChar

StartChar: e
Encoding: 69 101 31
GlifName: e
Width: 640
Flags: MW
HStem: -13 122<287.5 354.5 287.5 375.5> 218 117<174 477 170 603 174 174> 445 122<284.5 365>
LayerCount: 2
Fore
SplineSet
603 218 m 1
 174 218 l 1
 190 151 248 109 327 109 c 0
 382 109 415 124 449 164 c 1
 594 164 l 1
 585 136 571 113 550 87 c 0
 492 20 421 -13 330 -13 c 0
 161 -13 30 113 30 275 c 0
 30 438 159 567 322 567 c 0
 487 567 608 441 608 269 c 0
 608 249 607 237 603 218 c 1
170 335 m 1
 477 335 l 1
 460 406 406 445 324 445 c 0
 245 445 191 406 170 335 c 1
EndSplineSet
EndChar

StartChar: f
Encoding: 70 102 32
GlifName: f
Width: 280
Flags: HMW
HStem: 0 20 433 111<10 58 10 58 191 266> 611 128<235 245.5 212.5 261 212.5 274>
VStem: 58 133<0 433 0 433 0 544>
LayerCount: 2
Back
SplineSet
58 0 m 5
 58 433 l 5
 10 433 l 5
 10 544 l 5
 58 544 l 5
 65 613 75 645 102 677 c 4
 136 718 184 739 241 739 c 4
 250 739 258 739 274 737 c 5
 274 611 l 5
 261 611 l 6
 209 611 192 594 191 544 c 5
 266 544 l 5
 266 433 l 5
 191 433 l 5
 191 0 l 5
 58 0 l 5
EndSplineSet
Fore
SplineSet
58 0 m 1
 58 433 l 1
 10 433 l 1
 10 544 l 1
 58 544 l 1
 58 661 136.620402249 754.172449719 274 737 c 1
 274 611 l 1
 213 611 192.135977496 600.798874789 191 544 c 1
 266 544 l 1
 266 433 l 1
 191 433 l 1
 191 0 l 1
 58 0 l 1
EndSplineSet
EndChar

StartChar: g
Encoding: 71 103 33
GlifName: g
Width: 660
Flags: HMW
HStem: -221 117<298 374> -13 122<272.5 341> 445 122<271.5 343 224.5 365.5>
VStem: 30 134<224.5 326 224.5 363> 484 127<484 554>
LayerCount: 2
Fore
SplineSet
484 554 m 1
 611 554 l 1
 611 105 l 2
 611 -1 594 -69 555 -120 c 0
 503 -186 424 -221 324 -221 c 0
 188 -221 84 -156 39 -45 c 1
 190 -45 l 1
 203.128752723 -59.4752914641 216.144182535 -70.8908643234 230 -79.6663512262 c 0
 257.303985947 -96.9591433462 287.871350483 -104 329 -104 c 0
 425.47110164 -104 476.363147502 -48.9253076016 483.52675279 64 c 2
 484 73 l 1
 432 12 380 -13 302 -13 c 0
 144 -13 30 110 30 281 c 0
 30 445 146 567 303 567 c 0
 383 567 443 540 484 484 c 1
 484 554 l 1
318 445 m 0
 225 445 164 377 164 275 c 0
 164 174 225 109 320 109 c 0
 415 109 478 175 478 275 c 0
 478 376 413 445 318 445 c 0
EndSplineSet
EndChar

StartChar: h
Encoding: 72 104 34
GlifName: h
Width: 600
Flags: HMW
HStem: 0 20 445 123<299.5 343> 719 20<54 187 187 187>
VStem: 54 133<0 281 516 739> 412 133<0 283 283 313 0 341>
LayerCount: 2
Fore
SplineSet
54 0 m 1
 54 739 l 1
 187 739 l 1
 187 516 l 1
 227 552 271 568 328 568 c 0
 407 568 471 537 508 480 c 0
 535 439 545 394 545 313 c 2
 545 0 l 1
 412 0 l 1
 412 283 l 2
 412 333.060545921 406.412771423 370.084225162 393.791591615 396.000001258 c 0
 377.167048455 430.136107774 348.338598432 445 304 445 c 0
 260 445 225 426 206 392 c 0
 192 367 187 336 187 281 c 2
 187 0 l 1
 54 0 l 1
EndSplineSet
EndChar

StartChar: i
Encoding: 73 105 35
GlifName: i
Width: 240
Flags: MW
HStem: 0 20 614 125<54 187 54 187>
VStem: 54 133<0 554 0 554 614 739>
LayerCount: 2
Fore
SplineSet
54 0 m 1
 54 554 l 1
 187 554 l 1
 187 0 l 1
 54 0 l 1
54 614 m 1
 54 739 l 1
 187 739 l 1
 187 614 l 1
 54 614 l 1
EndSplineSet
EndChar

StartChar: j
Encoding: 74 106 36
GlifName: j
Width: 260
Flags: HMW
HStem: -185 20 614 125<72 205 72 205>
VStem: 72 133<40 554 614 739>
LayerCount: 2
Fore
SplineSet
72 554 m 1
 205 554 l 1
 205 37 l 2
 205 -46 187 -99 146 -137 c 0
 113 -168 68 -185 17 -185 c 1
 17 -56 l 1
 67 -47 72 -38 72 40 c 2
 72 554 l 1
72 614 m 1
 72 739 l 1
 205 739 l 1
 205 614 l 1
 72 614 l 1
EndSplineSet
EndChar

StartChar: k
Encoding: 75 107 37
GlifName: k
Width: 580
Flags: HMW
HStem: 0 20 719 20<54 187 187 187>
VStem: 54 133<0 259 293 739>
LayerCount: 2
Fore
SplineSet
54 0 m 1
 54 739 l 1
 187 739 l 1
 187 293 l 1
 364 554 l 1
 523 554 l 1
 325 283 l 1
 555 0 l 1
 376 0 l 1
 187 259 l 1
 187 259 l 1
 187 0 l 1
 54 0 l 1
EndSplineSet
EndChar

StartChar: l
Encoding: 76 108 38
GlifName: l
Width: 240
Flags: MW
HStem: 0 20 719 20<54 187 187 187>
VStem: 54 133<0 739 0 739>
LayerCount: 2
Fore
SplineSet
54 0 m 1
 54 739 l 1
 187 739 l 1
 187 0 l 1
 54 0 l 1
EndSplineSet
EndChar

StartChar: m
Encoding: 77 109 39
GlifName: m
Width: 940
Flags: W
HStem: 0 20 445 122<287.5 313 627 664.5> 534 20<54 176 176 176>
VStem: 54 133<0 273 0 554> 403 133<0 273 0 304 0 330> 752 133<0 304 304 320 0 331.5>
LayerCount: 2
Fore
SplineSet
54 0 m 1xdc
 54 554 l 1
 176 554 l 1xbc
 176 502 l 1
 215 549 255 567 320 567 c 0
 396 567 445 541 483 481 c 1
 528 541 583 567 661 567 c 0
 744 567 814 535 849 479 c 0
 873 441 885 387 885 320 c 2
 885 0 l 1
 752 0 l 1
 752 304 l 2
 752 359 745 390 727 411 c 0
 709 433 681 445 648 445 c 0
 606 445 572 426 555 392 c 0
 541 366 536 335 536 273 c 2
 536 0 l 1
 403 0 l 1
 403 304 l 2
 403 356 396 389 380 410 c 0
 362 432 331 445 295 445 c 0
 251 445 217 424 201 388 c 0
 192 365 187 328 187 273 c 2
 187 0 l 1
 54 0 l 1xdc
EndSplineSet
EndChar

StartChar: n
Encoding: 78 110 40
GlifName: n
Width: 600
Flags: W
HStem: 0 20 445 122<301.5 324> 534 20<54 177 177 177>
VStem: 54 133<0 261 0 554> 413 133<0 271 271 297 0 308>
LayerCount: 2
Fore
SplineSet
54 0 m 1xd8
 54 554 l 1
 177 554 l 1xb8
 177 501 l 1
 226 548 270 567 333 567 c 0
 410 567 470 539 506 487 c 0
 536 444 546 396 546 297 c 2
 546 0 l 1
 413 0 l 1
 413 271 l 2
 413 345 405 386 387 410 c 0
 369 433 341 445 307 445 c 0
 265 445 230 427 209 394 c 0
 192 367 187 335 187 261 c 2
 187 0 l 1
 54 0 l 1xd8
EndSplineSet
EndChar

StartChar: o
Encoding: 79 111 41
GlifName: o
Width: 640
Flags: MW
HStem: -13 122<280 369 280 404.5> 445 122<280.5 368.5>
VStem: 30 134<231.5 324.5 231.5 356.5> 485 134<230.5 323>
LayerCount: 2
Fore
SplineSet
323 567 m 0
 490 567 619 438 619 273 c 0
 619 117 485 -13 324 -13 c 0
 162 -13 30 117 30 277 c 0
 30 436 162 567 323 567 c 0
324 445 m 0
 237 445 164 370 164 279 c 0
 164 184 235 109 325 109 c 0
 413 109 485 184 485 277 c 0
 485 369 413 445 324 445 c 0
EndSplineSet
EndChar

StartChar: p
Encoding: 80 112 42
GlifName: p
Width: 660
Flags: HMW
HStem: -185 20 -13 122<323 387 296 437> 445 122<320.5 386>
VStem: 54 133<-185 52 -185 554> 500 134<229 324>
LayerCount: 2
Fore
SplineSet
54 554 m 5
 176 554 l 1
 176 489 l 1
 219 539 283 567 358 567 c 0
 518 567 634 446 634 279 c 0
 634 111 517 -13 357 -13 c 0
 289 -13 237 7 187 52 c 1
 187 -185 l 1
 54 -185 l 1
 54 554 l 5
341 445 m 0
 249 445 179 373 179 278 c 0
 179 181 249 109 343 109 c 0
 431 109 500 182 500 276 c 0
 500 372 431 445 341 445 c 0
EndSplineSet
EndChar

StartChar: q
Encoding: 81 113 43
GlifName: q
Width: 660
Flags: MW
HStem: -185 20 -13 122<280 345> 445 122<281 349.5 231.5 373>
VStem: 30 134<228 324.5 228 359> 478 133<-185 53 53 53>
LayerCount: 2
Fore
SplineSet
489 554 m 1
 611 554 l 1
 611 -185 l 1
 478 -185 l 1
 478 53 l 1
 434 9 379 -13 311 -13 c 0
 152 -13 30 114 30 279 c 0
 30 439 154 567 309 567 c 0
 390 567 446 541 489 483 c 1
 489 554 l 1
328 445 m 0
 234 445 164 373 164 276 c 0
 164 180 233 109 327 109 c 0
 418 109 486 180 486 275 c 0
 486 372 418 445 328 445 c 0
EndSplineSet
EndChar

StartChar: r
Encoding: 82 114 44
GlifName: r
Width: 320
Flags: HW
HStem: 0 20 534 20<54 176 176 176> 547 20<296 306 306 306>
VStem: 54 133<0 308 0 554>
LayerCount: 2
Fore
SplineSet
54 0 m 1xb0
 54 554 l 1
 176 554 l 1xd0
 176 500 l 1
 213.600914742 554.789904338 240.931283213 567 306 567 c 5
 306 439 l 1
 226 437 187 394 187 308 c 2
 187 0 l 1
 54 0 l 1xb0
EndSplineSet
EndChar

StartChar: s
Encoding: 83 115 45
GlifName: s
Width: 440
Flags: HMW
HStem: -13 122<207.5 244 207.5 277.5> 445 122<208.5 237>
VStem: 39 133<390 411.5 390 445.5> 287 133<147.5 172>
LayerCount: 2
Fore
SplineSet
19 176 m 1
 153 176 l 1
 166 129 188 109 227 109 c 0
 261 109 287 132 287 163 c 0
 287 181 278 196 262 206 c 0
 248 215 244 217 193 234 c 0
 130.865528455 254.899776792 89.7893799334 278.671143088 65.8065611834 310 c 0
 47.3313047793 334.134305076 39 362.75356541 39 398 c 0
 39 493 120 567 223 567 c 0
 319.944578166 567 400.706285057 501.902301165 405 401 c 1
 275 401 l 1
 269 430 251 445 223 445 c 0
 194 445 172 425 172 398 c 0
 172 382 181 369 199 361 c 0
 212 355 212 355 266 338 c 0
 314 323 347 309 368 291 c 0
 402 264 420 224 420 176 c 0
 420 70 333 -13 222 -13 c 0
 155 -13 92 16 56 64 c 4
 34 94 25 122 19 176 c 1
EndSplineSet
EndChar

StartChar: t
Encoding: 84 116 46
GlifName: t
Width: 300
Flags: MW
HStem: 0 20 433 121<9 74 9 74 207 287> 719 20<74 207 207 207>
VStem: 74 133<0 433 0 433 554 739>
LayerCount: 2
Fore
SplineSet
74 0 m 1
 74 433 l 1
 9 433 l 1
 9 554 l 1
 74 554 l 1
 74 739 l 1
 207 739 l 1
 207 554 l 1
 287 554 l 1
 287 433 l 1
 207 433 l 1
 207 0 l 1
 74 0 l 1
EndSplineSet
EndChar

StartChar: u
Encoding: 85 117 47
GlifName: u
Width: 600
Flags: MW
HStem: -13 122<275 298.5> 534 20<54 187 187 187 414 547 547 547>
VStem: 54 133<257 283 283 554> 414 133<293 554 0 554>
LayerCount: 2
Fore
SplineSet
547 554 m 1
 547 0 l 1
 424 0 l 1
 424 53 l 1
 374 4 332 -13 265 -13 c 0
 193 -13 133 16 96 69 c 0
 65 115 54 163 54 257 c 2
 54 554 l 1
 187 554 l 1
 187 283 l 2
 187 209 195 168 214 144 c 0
 232 120 258 109 292 109 c 0
 337 109 374 128 393 160 c 0
 409 184 414 220 414 293 c 2
 414 554 l 1
 547 554 l 1
EndSplineSet
EndChar

StartChar: v
Encoding: 86 118 48
GlifName: v
Width: 560
Flags: MW
HStem: 0 20 534 20<1 149 149 149 403 553 553 553>
LayerCount: 2
Fore
SplineSet
224 0 m 1
 1 554 l 1
 149 554 l 1
 277 187 l 1
 403 554 l 1
 553 554 l 1
 330 0 l 1
 224 0 l 1
EndSplineSet
EndChar

StartChar: w
Encoding: 87 119 49
GlifName: w
Width: 800
Flags: MW
HStem: 0 20 534 20<10 153 153 153 345 451 451 451 643 785 785 785>
LayerCount: 2
Fore
SplineSet
208 0 m 1
 10 554 l 1
 153 554 l 1
 252 216 l 1
 345 554 l 1
 451 554 l 1
 542 216 l 1
 643 554 l 1
 785 554 l 1
 585 0 l 1
 502 0 l 1
 397 359 l 1
 290 0 l 1
 208 0 l 1
EndSplineSet
EndChar

StartChar: x
Encoding: 88 120 50
GlifName: x
Width: 560
Flags: MW
HStem: 0 20 534 20<27 177 177 177 375 525 525 525>
LayerCount: 2
Fore
SplineSet
1 0 m 1
 197 286 l 1
 27 554 l 1
 177 554 l 1
 277 387 l 1
 375 554 l 1
 525 554 l 1
 356 286 l 1
 553 0 l 1
 393 0 l 1
 277 190 l 1
 161 0 l 1
 1 0 l 1
EndSplineSet
EndChar

StartChar: y
Encoding: 89 121 51
GlifName: y
Width: 580
Flags: MW
HStem: -185 20 534 20<6 158 158 158 415 568 568 568>
LayerCount: 2
Fore
SplineSet
105 -185 m 1
 209 52 l 1
 6 554 l 1
 158 554 l 1
 281 195 l 1
 415 554 l 1
 568 554 l 1
 248 -185 l 1
 105 -185 l 1
EndSplineSet
EndChar

StartChar: z
Encoding: 90 122 52
GlifName: z
Width: 460
Flags: MW
HStem: 0 119<20 20 179 442> 435 119<48 264 48 423 48 423>
LayerCount: 2
Fore
SplineSet
20 0 m 1
 20 119 l 1
 264 435 l 1
 48 435 l 1
 48 554 l 1
 423 554 l 1
 423 435 l 1
 179 119 l 1
 442 119 l 1
 442 0 l 1
 20 0 l 1
EndSplineSet
EndChar

StartChar: oslash
Encoding: 125 248 53
GlifName: oslash
Width: 660
Flags: MW
HStem: -13 122<315.5 369.5 315.5 407> 445 122<281 332>
VStem: 30 134<261.5 324 261.5 357> 486 134<230 295.5>
LayerCount: 2
Fore
SplineSet
59 -10 m 1
 116 74 l 1
 61 126 30 200 30 277 c 0
 30 437 163 567 326 567 c 0
 365 567 400 560 435 546 c 1
 487 623 l 1
 573 565 l 1
 523 492 l 1
 587 433 620 360 620 277 c 0
 620 117 488 -13 326 -13 c 0
 282 -13 241 -4 200 15 c 1
 144 -67 l 1
 59 -10 l 1
191 185 m 1
 363 440 l 1
 348 444 339 445 325 445 c 0
 237 445 164 370 164 278 c 0
 164 245 173 214 191 185 c 1
450 383 m 1
 271 119 l 1
 290 112 306 109 325 109 c 0
 414 109 486 184 486 276 c 0
 486 315 474 351 450 383 c 1
EndSplineSet
EndChar

StartChar: germandbls
Encoding: 123 223 54
GlifName: germandbls
Width: 600
Flags: HW
HStem: -13 122<337 385 337 418.5> 630 122<242 296.5>
VStem: 51 122<0 79 0 487> 51 133<189 189 189 487 487 503> 356 134<513 564.5> 450 134<177.5 225.5>
LayerCount: 2
Back
SplineSet
51 0 m 261
 51 487 l 262
 51 553 61 599 83 643 c 260
 119 711 190 752 272 752 c 260
 395 752 490 663 490 546 c 260
 490 480 467 437 415 408 c 261
 463 397 486 387 514 364 c 260
 561 327 584 277 584 216 c 260
 584 82 487 -13 350 -13 c 260
 269 -13 210 18 173 79 c 261
 173 0 l 261
 51 0 l 261
184 189 m 261
 266 189 l 261
 275 143 315 109 359 109 c 260
 411 109 450 150 450 205 c 260
 450 246 429 281 393 298 c 260
 363 312 338 315 266 315 c 262
 255 315 l 261
 255 433 l 261
 266 433 l 262
 318 433 356 477 356 536 c 260
 356 593 322 630 271 630 c 260
 213 630 184 588 184 503 c 262
 184 189 l 261
EndSplineSet
Fore
SplineSet
139 189 m 1
 266 189 l 1
 275 143 315 109 359 109 c 0
 411 109 450 150 450 205 c 0xd4
 450 246 429 281 393 298 c 0
 363 312 338 315 266 315 c 2
 255 315 l 1
 255 433 l 1
 266 433 l 2
 318 433 356 477 356 536 c 0
 356 593 322 630 271 630 c 0
 244.70038804 630 224.363444953 621.364410598 209.989170739 604 c 0
 192.663056913 583.069708143 184 549.457465231 184 503 c 0
 184 0 l 1
 51 0 l 1xd0
 51 487 l 2
 51 553 61 599 83 643 c 0
 119 711 190 752 272 752 c 0
 395 752 490 663 490 546 c 0xd8
 490 480 467 437 415 408 c 1
 513.669476703 385.388244922 584 321.379532672 584 216 c 0
 584 82 487 -13 350 -13 c 0
 271.155095882 -13 212.967279419 16.3271459234 176 74.1948082237 c 0
 150.600452183 113.95463039 139 169 139 189 c 1
EndSplineSet
EndChar

StartChar: one
Encoding: 17 49 57
GlifName: one
Width: 560
Flags: MW
HStem: 0 20 614 125<153 246 153 379>
VStem: 246 133<0 614 614 614>
LayerCount: 2
Fore
SplineSet
246 0 m 1
 246 614 l 1
 153 614 l 1
 153 739 l 1
 379 739 l 1
 379 0 l 1
 246 0 l 1
EndSplineSet
EndChar

StartChar: two
Encoding: 18 50 58
GlifName: two
Width: 560
Flags: HMW
HStem: 0 125<226 517 226 517> 630 122<245.5 310.5>
VStem: 387 133<490 547>
LayerCount: 2
Fore
SplineSet
39 0 m 1
 39 117 l 1
 302 366 l 2
 362 423 387 466 387 514 c 0
 387 580 341 630 280 630 c 0
 211 630 165 572 165 484 c 1
 34 484 l 1
 34 555 45 599 73 643 c 0
 115 711 193 752 279 752 c 0
 416 752 520 648 520 512 c 0
 520 402 457.220838523 334.792983104 377 262 c 2
 226 125 l 1
 517 125 l 1
 517 0 l 1
 39 0 l 1
EndSplineSet
EndChar

StartChar: three
Encoding: 19 51 59
GlifName: three
Width: 560
Flags: HW
HStem: -13 122<237 302.5 237 341.5> 630 122<249 286>
VStem: 332 133<544.5 580.5> 385 133<196.5 269.5>
LayerCount: 2
Fore
SplineSet
205 563 m 1
 70 563 l 1
 75 623 87 655 118 689 c 0
 155 729 208 752 266 752 c 0
 380 752 465 667 465 553 c 0xe0
 465 496 446 457 403 426 c 1
 479 392 518 328 518 235 c 0
 518 92 413 -13 270 -13 c 0
 186.450751163 -13 115.710352172 20.9261428369 70.0000034448 77.1682881149 c 0
 38.0212094256 116.515088766 18.2930000655 166.784123862 15 224 c 1
 149 224 l 1
 152.788558261 194.533435748 163.310704182 169.496863377 178.999998079 150.382130208 c 4
 200.581780761 124.088402777 231.940858745 109 269 109 c 0
 336 109 385 161 385 232 c 0
 385 295.564088716 344.057347141 340.45258139 278.000004671 352.663818228 c 0
 266.115528334 354.860760306 253.418135907 356 240 356 c 2
 218 356 l 1xd0
 218 484 l 1
 254 485 272 487 289 494 c 0
 317 506 332 529 332 560 c 0
 332 601 305 630 267 630 c 0
 231 630 211 609 205 563 c 1
EndSplineSet
EndChar

StartChar: four
Encoding: 20 52 60
GlifName: four
Width: 560
Flags: MW
HStem: 0 20 111 119<135 319 135 319 452 530> 719 20<340 452 452 452>
VStem: 319 133<0 111 0 111 230 515 515 515>
LayerCount: 2
Fore
SplineSet
0 219 m 1
 340 739 l 1
 452 739 l 1
 452 230 l 1
 530 230 l 1
 530 111 l 1
 452 111 l 1
 452 0 l 1
 319 0 l 1
 319 111 l 1
 0 111 l 1
 0 219 l 1
319 230 m 1
 319 515 l 1
 135 230 l 1
 319 230 l 1
EndSplineSet
EndChar

StartChar: five
Encoding: 21 53 61
GlifName: five
Width: 560
Flags: MW
HStem: -13 122<233 301 233 340.5> 377 122<269 301> 614 125<215 449 215 215>
VStem: 387 133<205 282.5>
LayerCount: 2
Fore
SplineSet
46 353 m 1
 115 739 l 1
 449 739 l 1
 449 614 l 1
 215 614 l 1
 191 478 l 1
 229 494 252 499 286 499 c 0
 421 499 520 392 520 247 c 0
 520 99 412 -13 269 -13 c 0
 189 -13 116 21 66 82 c 0
 31 125 15 165 12 221 c 1
 145 221 l 1
 158 149 201 109 265 109 c 0
 337 109 387 165 387 245 c 0
 387 320 335 377 267 377 c 0
 225 377 197 362 164 321 c 1
 46 353 l 1
EndSplineSet
EndChar

StartChar: six
Encoding: 22 54 62
GlifName: six
Width: 560
Flags: MW
HStem: -13 122<243.5 315.5 243.5 353.5> 370 116<241 388> 719 20<287 446 446 446>
VStem: 21 133<201 277.5> 400 133<200.5 277>
LayerCount: 2
Fore
SplineSet
287 739 m 1
 446 739 l 1
 269 476 l 1
 293 484 306 486 329 486 c 0
 447 486 533 387 533 252 c 0
 533 98 427 -13 280 -13 c 0
 131 -13 21 96 21 242 c 0
 21 313 41 369 94 449 c 2
 287 739 l 1
278 370 m 0
 204 370 154 317 154 239 c 0
 154 163 207 109 280 109 c 0
 351 109 400 162 400 239 c 0
 400 315 348 370 278 370 c 0
EndSplineSet
EndChar

StartChar: seven
Encoding: 23 55 63
GlifName: seven
Width: 560
Flags: MW
HStem: 0 20 614 125<65 360 65 500 65 500>
LayerCount: 2
Fore
SplineSet
80 0 m 1
 360 614 l 1
 65 614 l 1
 65 739 l 1
 500 739 l 1
 500 614 l 1
 230 0 l 1
 80 0 l 1
EndSplineSet
EndChar

StartChar: eight
Encoding: 24 56 64
GlifName: eight
Width: 560
Flags: HW
HStem: -13 122<246.5 310.5 246.5 348> 341 128<258 299.5 258 309.5> 630 122<258 300.5>
VStem: 31 133<193 255> 76 127<527 572 527 605.5> 354 127<527.5 572.5> 390 133<192 257>
LayerCount: 2
Fore
SplineSet
137 411 m 1xf2
 91 460 76 495 76 549 c 0
 76 662 166 752 279 752 c 0
 395 752 481 666 481 551 c 0xec
 481 489 461 445 419 411 c 1
 482.121508371 373.127094977 523 323.50879569 523 232 c 0
 523 92 418 -13 278 -13 c 0
 139 -13 31 93 31 231 c 0
 31 320.343996266 71.8752158369 374.606738262 137 411 c 1xf2
279 341 m 0xf2
 215 341 164 291 164 226 c 0
 164 160 214 109 279 109 c 0
 342 109 390 159 390 225 c 0
 390 289 340 341 279 341 c 0xf2
280 630 m 0
 236 630 203 595 203 549 c 0
 203 505 237 469 279 469 c 0
 320 469 354 505 354 550 c 0
 354 595 321 630 280 630 c 0
EndSplineSet
EndChar

StartChar: nine
Encoding: 25 57 65
GlifName: nine
Width: 560
Flags: MW
HStem: 0 20 251 118<167.5 312.5> 630 122<238 309.5>
VStem: 22 133<462 538 462 564> 399 133<461.5 538>
LayerCount: 2
Fore
SplineSet
266 0 m 1
 107 0 l 1
 285 263 l 1
 261 254 247 251 225 251 c 0
 110 251 22 353 22 487 c 0
 22 641 127 752 273 752 c 0
 422 752 532 643 532 496 c 0
 532 426 512 369 459 290 c 2
 266 0 l 1
273 630 m 0
 203 630 155 576 155 500 c 0
 155 424 206 369 276 369 c 0
 349 369 399 423 399 500 c 0
 399 576 346 630 273 630 c 0
EndSplineSet
EndChar

StartChar: zero
Encoding: 16 48 66
GlifName: zero
Width: 560
Flags: HMW
HStem: -13 122<242 298.5 242 326.5> 630 122<243 315>
VStem: 30 133<247 251 251 498> 392 133<248 498 498 505>
LayerCount: 2
Fore
SplineSet
525 505 m 2
 525 247 l 2
 525 173 511 124 478 78 c 0
 435 18 369 -13 284 -13 c 0
 194 -13 123 20 77 81 c 0
 44 126 30 176 30 247 c 2
 30 498 l 2
 30 585.699293362 60.3399055474 655.068227123 113.912910346 698.999994987 c 0
 155.635870067 733.214304747 211.450593533 752 278 752 c 0
 345.552281739 752 402.355431446 732.327060244 444.390625298 697.000004556 c 0
 495.69467796 653.883250253 525 587.447718261 525 505 c 2
392 248 m 2
 392 498 l 2
 392 541.218051075 381.400720071 574.612379288 361.516594134 596.999994113 c 0
 342.293202202 618.643685947 314.391768501 630 279 630 c 0
 248.838240197 630 223.590154993 621.225581072 204.431975127 605.000002797 c 0
 177.857115564 582.493038826 163 545.649106891 163 498 c 2
 163 251 l 2
 163 196.203377398 177.545068974 156.306581549 205.367411605 133.000006208 c 4
 224.256990266 117.176342685 249.266775193 109 280 109 c 0
 317 109 350 124 368 150 c 0
 385 173 392 202 392 248 c 2
EndSplineSet
EndChar

StartChar: sterling
Encoding: 97 163 67
GlifName: sterling
Width: 560
Flags: HMW
HStem: 0 125<41 180 41 180 41 301> 310 125<0 58 0 142 0 58 301 301 301 408> 630 122<251 305>
VStem: 41 133<501 544.5 496 582> 200 133<189.5 217.5 189.5 218.5> 430 133<202.5 228>
LayerCount: 2
Fore
SplineSet
41 0 m 1
 41 125 l 1
 180 125 l 1
 193 147 200 171 200 198 c 0
 200 239 184 271 142 310 c 1
 0 310 l 1
 0 435 l 1
 58 435 l 1
 46 462 41 486 41 516 c 0
 41 648 147 752 280 752 c 0
 407 752 503 666 514 541 c 1
 379 541 l 1
 364 598 329 630 281 630 c 0
 221 630 174 578 174 511 c 0
 174 481 183 457 201 435 c 1
 408 435 l 1
 408 310 l 1
 301 310 l 1
 324 265 333 235 333 200 c 0
 333 179 328 148 320 125 c 1
 327 125 l 2
 351.823737528 125.477004422 367.332079491 128.749294714 382 137 c 0
 412 153 430 185 430 220 c 0
 430 236 428 248 420 274 c 1
 552 274 l 1
 560 253 563 240 563 222 c 0
 563 157 535 95 488 54 c 0
 441 14 393 0 301 0 c 2
 41 0 l 1
EndSplineSet
EndChar

StartChar: dollar
Encoding: 4 36 68
GlifName: dollar
Width: 560
Flags: HW
HStem: -86 249<253 301 253 347 220 301> 613 243<263 297>
VStem: 88 133<537 567.5 537 569> 220 127<-86 46 -86 46 723 856> 361 133<222.5 262>
LayerCount: 2
Fore
SplineSet
220 -86 m 1
 220 92 l 1
 347 92 l 1
 347 -86 l 1
 220 -86 l 1
220 856 m 1
 347 856 l 1
 347 701 l 1
 220 701 l 1
 220 856 l 1
60.099609375 246.099609375 m 1
 188.799804688 246.099609375 l 1
 194.200195312 190.299804688 223.900390625 163.299804688 278.799804688 163.299804688 c 0
 331.900390625 163.299804688 358.799804688 196.599609375 358.799804688 244.299804688 c 0
 358.799804688 272.200195312 348 295.599609375 328.200195312 311.799804688 c 0
 307.5 327.099609375 301.705907758 328.764797422 213 363.099609375 c 0
 173.704469692 378.309471692 143.257097924 400.247259584 121.875175383 427.999993784 c 0
 97.0059492128 460.279084795 84.400390625 500.424588901 84.400390625 547 c 0
 84.400390625 644 170.799804688 736 277.900390625 736 c 0
 388.22265625 736 468.956054688 659.8125 475 547 c 1
 347.200195312 547 l 1
 343.599609375 592 310 614.200195312 277 614.200195312 c 0
 250 614.200195312 220.599609375 589.299804688 220.599609375 549.700195312 c 0
 220.599609375 526.886342578 225.883170022 511.92120031 237 500.360261956 c 0
 252.537710934 484.201832025 279.470680243 474.693495028 319.299804688 459.700195312 c 0
 384.068841459 435.318499903 405.700195312 420.700195312 431.799804688 396.400390625 c 0
 470.5 360.400390625 491.200195312 312.700195312 491.200195312 257.799804688 c 0
 491.200195312 137.200195312 398.5 44.5 278.799804688 44.5 c 0
 208.599609375 44.5 142.900390625 74.2001953125 103.299804688 125.5 c 0
 76.2998046875 160.599609375 64.599609375 193.900390625 60.099609375 246.099609375 c 1
EndSplineSet
EndChar

StartChar: cent
Encoding: 96 162 69
GlifName: cent
Width: 560
Flags: MW
HStem: 39 231<249 296.5 249 343 218 296.5> 489 226<246.5 294.5>
VStem: 39 133<348.5 410.5 347.5 414> 218 125<39 148 39 148 611 715>
LayerCount: 2
Fore
SplineSet
343 39 m 1
 218 39 l 1
 218 148 l 1
 170 159 139 175 106 210 c 0
 64 253 39 316 39 381 c 0
 39 447 66 511 113 556 c 0
 143 585 170 599 218 611 c 1
 218 715 l 1
 343 715 l 1
 343 611 l 1
 429 590 493 525 511 443 c 1
 369 443 l 1
 349 471 313 489 276 489 c 0
 217 489 172 442 172 379 c 0
 172 316 218 270 280 270 c 0
 313 270 340 282 365 310 c 1
 511 310 l 1
 476 221 423 169 343 148 c 1
 343 39 l 1
EndSplineSet
EndChar

StartChar: florin
Encoding: 126 402 70
GlifName: florin
Width: 560
Flags: HMW
HStem: -149 119<30.5 55.5 30.5 76> 470 115<143 218 124 237 364 437 143 344> 703 120<445.5 465 465 471 431 474>
LayerCount: 2
Back
SplineSet
364 585 m 5
 456 585 l 5
 437 470 l 5
 344 470 l 5
 282 106 l 6
 262 -8 246 -50 207 -87 c 4
 163 -129 110 -149 42 -149 c 4
 19 -149 5 -147 -17 -142 c 5
 3 -26 l 5
 18 -29 25 -30 36 -30 c 4
 129.518156681 -30 140.167164459 29.1088210886 158 128 c 6
 218 470 l 5
 124 470 l 5
 143 585 l 5
 237 585 l 5
 242 611 l 6
 259 689 268 711 297 747 c 4
 337 796 397 823 465 823 c 4
 477 823 483 822 494 820 c 5
 474 703 l 5
 472 703 468.61 703 465 703 c 20
 441.190544208 703 420.735468209 695.918531547 405.000002046 682.438209661 c 4
 394.960701001 673.837701219 386.842517003 662.632539674 381 649 c 4
 375 635 371 620 364 585 c 5
EndSplineSet
Fore
SplineSet
364 585 m 1
 456 585 l 1
 437 470 l 1
 344 470 l 1
 282 106 l 2
 262 -8 246 -50 207 -87 c 0
 163 -129 110 -149 42 -149 c 0
 19 -149 5 -147 -17 -142 c 1
 3 -26 l 1
 18 -29 25 -30 36 -30 c 0
 129.518156681 -30 140.167164459 29.1088210886 158 128 c 2
 218 470 l 1
 124 470 l 1
 143 585 l 1
 237 585 l 1
 242 611 l 2
 259 689 268 711 297 747 c 0
 337 796 397 823 465 823 c 0
 477 823 483 822 494 820 c 1
 474 703 l 1
 472 703 468.61 703 465 703 c 16
 441.190544208 703 420.775087537 695.872146212 405.000002046 682.438209661 c 0
 385.172947302 665.553648525 377.982881436 645.95193853 369.588957863 610 c 2
 364 585 l 1
EndSplineSet
EndChar

StartChar: yen
Encoding: 99 165 71
GlifName: yen
Width: 560
Flags: MW
HStem: 0 20 187 88<12 208 12 208 341 538> 380 88<12 106 12 152 12 106 446 538> 719 20<-35 114 114 114 435 589 589 589>
VStem: 208 133<0 187 0 187 0 275>
LayerCount: 2
Fore
SplineSet
208 0 m 1
 208 187 l 1
 12 187 l 1
 12 275 l 1
 208 275 l 1
 152 380 l 1
 12 380 l 1
 12 468 l 1
 106 468 l 1
 -35 739 l 1
 114 739 l 1
 274 398 l 1
 435 739 l 1
 589 739 l 1
 446 468 l 1
 538 468 l 1
 538 380 l 1
 398 380 l 1
 341 275 l 1
 538 275 l 1
 538 187 l 1
 341 187 l 1
 341 0 l 1
 208 0 l 1
EndSplineSet
EndChar

StartChar: onesuperior
Encoding: 118 185 72
GlifName: onesuperior
Width: 336
Flags: MW
HStem: 659 80<94 153 94 241>
VStem: 153 88<296 659 659 659>
LayerCount: 2
Fore
SplineSet
153 296 m 1
 153 659 l 1
 94 659 l 1
 94 739 l 1
 241 739 l 1
 241 296 l 1
 153 296 l 1
EndSplineSet
EndChar

StartChar: twosuperior
Encoding: 111 178 73
GlifName: twosuperior
Width: 336
Flags: MW
HStem: 296 80<143 324 143 324> 668 79<147.5 189.5>
VStem: 238 88<589.5 621.5>
LayerCount: 2
Fore
SplineSet
13 296 m 1
 13 370 l 1
 183 518 l 2
 224 555 238 576 238 603 c 0
 238 640 209 668 170 668 c 0
 125 668 98 637 97 582 c 1
 10 582 l 1
 10 628 17 654 35 682 c 0
 63 722 113 747 169 747 c 0
 259 747 326 684 326 601 c 0
 326 549 296 498 237 451 c 2
 143 376 l 1
 324 376 l 1
 324 296 l 1
 13 296 l 1
EndSplineSet
EndChar

StartChar: threesuperior
Encoding: 112 179 74
GlifName: threesuperior
Width: 336
Flags: HW
HStem: 288 79<148.5 191 148.5 216.5> 668 78<155.5 180.5>
VStem: 211 88<615 641> 244 87<416 457.5>
LayerCount: 2
Fore
SplineSet
126 628 m 1
 37 628 l 1
 44.6258511177 702.352048398 92.2726330411 746 167 746 c 0
 243 746 299 695 299 625 c 0xe0
 299 593 287 568 265 551 c 1
 307 531 331 491 331 439 c 0
 331 352 263 288 170 288 c 0
 103.962504597 288 51.2506850171 317.612612941 24.0000018432 365.395833131 c 0
 12.4611427622 385.628861445 5.48736726579 409.119809575 4 435 c 1
 92 435 l 1
 94.0648845813 420.545807931 98.853830598 407.986615122 105.999998542 397.730021026 c 0
 119.618675304 378.183707426 141.798339499 367 170 367 c 0
 212 367 244 396 244 436 c 0
 244 479 212 506 149 506 c 4
 140.94 506 136 506 128 506 c 1xd0
 128 588 l 1
 189 589 211 600 211 630 c 0
 211 652 193 668 168 668 c 0
 143 668 131 657 126 628 c 1
EndSplineSet
EndChar

StartChar: period
Encoding: 14 46 75
GlifName: period
Width: 280
Flags: MW
HStem: 0 128<72 205 72 205>
VStem: 72 133<0 128 0 128>
LayerCount: 2
Fore
SplineSet
72 0 m 1
 72 128 l 1
 205 128 l 1
 205 0 l 1
 72 0 l 1
EndSplineSet
EndChar

StartChar: colon
Encoding: 26 58 76
GlifName: colon
Width: 280
Flags: MW
HStem: 0 128<72 205 72 205> 369 133<72 205 72 205>
VStem: 72 133<0 128 0 128 369 502>
LayerCount: 2
Fore
SplineSet
72 0 m 1
 72 128 l 1
 205 128 l 1
 205 0 l 1
 72 0 l 1
72 369 m 1
 72 502 l 1
 205 502 l 1
 205 369 l 1
 72 369 l 1
EndSplineSet
EndChar

StartChar: periodcentered
Encoding: 116 183 77
GlifName: periodcentered
Width: 280
Flags: MW
HStem: 300 133<72 205 72 205>
VStem: 72 133<300 433 300 433>
LayerCount: 2
Fore
SplineSet
72 300 m 1
 72 433 l 1
 205 433 l 1
 205 300 l 1
 72 300 l 1
EndSplineSet
EndChar

StartChar: ellipsis
Encoding: 146 8230 78
GlifName: ellipsis
Width: 1000
Flags: MW
HStem: 0 128<100 233 100 233 432 565 765 899>
VStem: 100 133<0 128 0 128> 432 133<0 128 0 128> 765 134<0 128 0 128>
LayerCount: 2
Fore
SplineSet
100 0 m 1
 100 128 l 1
 233 128 l 1
 233 0 l 1
 100 0 l 1
432 0 m 1
 432 128 l 1
 565 128 l 1
 565 0 l 1
 432 0 l 1
765 0 m 1
 765 128 l 1
 899 128 l 1
 899 0 l 1
 765 0 l 1
EndSplineSet
EndChar

StartChar: comma
Encoding: 12 44 79
GlifName: comma
Width: 277
Flags: HMW
LayerCount: 2
Fore
SplineSet
51 -67 m 1
 139 126 l 1
 253 126 l 1
 165 -67 l 1
 51 -67 l 1
EndSplineSet
EndChar

StartChar: semicolon
Encoding: 27 59 80
GlifName: semicolon
Width: 277
Flags: HMW
LayerCount: 2
Fore
SplineSet
21 -67 m 1
 109 126 l 1
 223 126 l 1
 135 -67 l 1
 21 -67 l 1
92 373 m 1
 92 501 l 1
 225 501 l 1
 225 373 l 1
 92 373 l 1
EndSplineSet
EndChar

StartChar: quoteleft
Encoding: 137 8216 81
GlifName: quoteleft
Width: 351
VWidth: 0
Flags: HMW
HStem: 719 20<98 172 172 172>
LayerCount: 2
Fore
SplineSet
280 546 m 5
 166 546 l 1
 78 739 l 1
 192 739 l 1
 280 546 l 5
EndSplineSet
EndChar

StartChar: quotedblright
Encoding: 141 8221 82
GlifName: quotedblright
Width: 484
VWidth: 0
Flags: HMW
HStem: 719 20<175 249 249 249 319 393 393 393>
LayerCount: 2
Fore
SplineSet
36 546 m 5
 124 739 l 1
 238 739 l 1
 150 546 l 1
 36 546 l 5
254 546 m 1
 342 739 l 1
 456 739 l 1
 368 546 l 1
 254 546 l 1
EndSplineSet
EndChar

StartChar: quotedblleft
Encoding: 140 8220 83
GlifName: quotedblleft
Width: 502
VWidth: 0
Flags: HMW
HStem: 719 20<96 170 170 170 244 318 318 318>
LayerCount: 2
Fore
SplineSet
238 546 m 1
 124 546 l 1
 36 739 l 1
 150 739 l 1
 238 546 l 1
456 546 m 1
 342 546 l 1
 254 739 l 1
 368 739 l 1
 456 546 l 1
EndSplineSet
EndChar

StartChar: quotedblbase
Encoding: 142 8222 84
GlifName: quotedblbase
Width: 502
VWidth: 0
Flags: HMW
LayerCount: 2
Fore
SplineSet
31 -67 m 5
 119 126 l 1
 233 126 l 1
 145 -67 l 1
 31 -67 l 5
249 -67 m 1
 337 126 l 1
 451 126 l 1
 363 -67 l 1
 249 -67 l 1
EndSplineSet
EndChar

StartChar: exclam
Encoding: 1 33 85
GlifName: exclam
Width: 280
Flags: MW
HStem: 0 128<72 205 72 205> 719 20<72 205 205 205>
VStem: 72 133<0 128 0 128 188 739>
LayerCount: 2
Fore
SplineSet
72 188 m 1
 72 739 l 1
 205 739 l 1
 205 188 l 1
 72 188 l 1
72 0 m 1
 72 128 l 1
 205 128 l 1
 205 0 l 1
 72 0 l 1
EndSplineSet
EndChar

StartChar: exclamdown
Encoding: 95 161 86
GlifName: exclamdown
Width: 280
Flags: MW
HStem: -185 20 426 128<72 205 72 205>
VStem: 72 133<-185 366 -185 366 426 554>
LayerCount: 2
Fore
SplineSet
205 366 m 1
 205 -185 l 1
 72 -185 l 1
 72 366 l 1
 205 366 l 1
205 554 m 1
 205 426 l 1
 72 426 l 1
 72 554 l 1
 205 554 l 1
EndSplineSet
EndChar

StartChar: question
Encoding: 31 63 87
GlifName: question
Width: 560
Flags: HMW
HStem: 0 128<185 318 185 318> 620 132<230 284.5>
VStem: 185 133<0 128 0 128 0 187> 352 133<511.5 554>
LayerCount: 2
Fore
SplineSet
185 0 m 1
 185 128 l 1
 318 128 l 1
 318 0 l 1
 185 0 l 1
165 520 m 1
 32 520 l 1
 37 586 51 628 80 665 c 0
 122 720 189 752 260 752 c 0
 388 752 485 654 485 523 c 0
 485 456 460 412 383 344 c 0
 328 297 319 274 318 187 c 1
 185 187 l 1
 184 311 208 361 307 442 c 0
 337 468 352 496 352 527 c 0
 352 581 312 620 257 620 c 0
 224.792156597 620 201.477876094 608.616239488 185.996260413 585 c 4
 175.521240739 569.021010575 168.632026099 547.441974974 165 520 c 1
EndSplineSet
EndChar

StartChar: guillemotleft
Encoding: 105 171 90
GlifName: guillemotleft
Width: 460
Flags: W
LayerCount: 2
Fore
SplineSet
388 108 m 1
 249 239 l 1
 249 339 l 1
 388 469 l 1
 388 346 l 1
 321 289 l 1
 388 231 l 1
 388 108 l 1
175 108 m 1
 36 239 l 1
 36 339 l 1
 175 469 l 1
 175 346 l 1
 108 289 l 1
 175 231 l 1
 175 108 l 1
EndSplineSet
EndChar

StartChar: guilsinglleft
Encoding: 148 8249 92
GlifName: guilsinglleft
Width: 240
Flags: W
LayerCount: 2
Fore
SplineSet
175 108 m 1
 36 239 l 1
 36 339 l 1
 175 469 l 1
 175 346 l 1
 108 289 l 1
 175 231 l 1
 175 108 l 1
EndSplineSet
EndChar

StartChar: slash
Encoding: 15 47 93
GlifName: slash
Width: 460
Flags: MW
HStem: 719 20<349 443 443 443>
LayerCount: 2
Fore
SplineSet
26 -128 m 1
 349 739 l 1
 443 739 l 1
 120 -128 l 1
 26 -128 l 1
EndSplineSet
EndChar

StartChar: hyphen
Encoding: 13 45 94
GlifName: hyphen
Width: 420
Flags: MW
HStem: 229 118<74 351 74 351>
LayerCount: 2
Fore
SplineSet
74 229 m 1
 74 347 l 1
 351 347 l 1
 351 229 l 1
 74 229 l 1
EndSplineSet
EndChar

StartChar: endash
Encoding: 135 8211 95
GlifName: endash
Width: 500
Flags: MW
HStem: 229 118<0 500 0 500>
LayerCount: 2
Fore
SplineSet
0 229 m 1
 0 347 l 1
 500 347 l 1
 500 229 l 1
 0 229 l 1
EndSplineSet
EndChar

StartChar: emdash
Encoding: 136 8212 96
GlifName: emdash
Width: 1000
Flags: MW
HStem: 229 118<0 1000 0 1000>
LayerCount: 2
Fore
SplineSet
0 229 m 1
 0 347 l 1
 1000 347 l 1
 1000 229 l 1
 0 229 l 1
EndSplineSet
EndChar

StartChar: parenleft
Encoding: 8 40 97
GlifName: parenleft
Width: 380
Flags: HMW
HStem: 719 20<349 349>
VStem: 74 135<241.5 360.5 241.5 370.5>
LayerCount: 2
Fore
SplineSet
349 8 m 1
 349 -137 l 1
 189.5746029 -81.2011110149 74 109.773389053 74 300 c 4
 74 500.79719719 186.743923616 671.648421124 349 739 c 1
 349 595 l 1
 258 525 209 421 209 300 c 0
 209 183 267 61 349 8 c 1
EndSplineSet
EndChar

StartChar: bracketleft
Encoding: 59 91 99
GlifName: bracketleft
Width: 320
Flags: HMW
HStem: 719 20<292 292>
VStem: 74 135<187 419>
LayerCount: 2
Fore
SplineSet
292 739 m 1
 292 592 l 1
 222.545120433 563.060466847 209 514.641617511 209 419 c 2
 209 164 l 2
 209 82.3901361895 228.736477196 33.4978798986 292 10 c 1
 292 -137 l 1
 213 -119 164 -86 123 -23 c 0
 90 29 74 96 74 187 c 2
 74 446 l 2
 74 539 98 607 150 662 c 0
 186 700 220 718 292 739 c 1
EndSplineSet
EndChar

StartChar: bracketright
Encoding: 61 93 100
GlifName: bracketright
Width: 320
Flags: HMW
HStem: 719 20<37 37>
VStem: 120 135<183 415>
LayerCount: 2
Fore
SplineSet
37 592 m 1
 37 739 l 1
 116 721 166 688 206 625 c 0
 239 573 255 506 255 415 c 2
 255 156 l 2
 255 63 231 -5 179 -60 c 0
 143 -97 109 -116 37 -137 c 1
 37 10 l 1
 106.454879567 38.9395331531 120 87.3583824893 120 183 c 2
 120 438 l 2
 120 520.780634193 100.082234689 566.767106125 37 592 c 1
EndSplineSet
EndChar

StartChar: ampersand
Encoding: 6 38 101
GlifName: ampersand
Width: 680
Flags: W
HStem: -13 132<239 290 239 315.5> 627 125<282.5 318>
VStem: 35 133<187.5 238.5 187.5 268> 111 127<553.5 584 553.5 620.5> 361 127<547.5 584>
LayerCount: 2
Fore
SplineSet
511 433 m 1xd8
 660 433 l 1
 532 214 l 1
 664 73 l 1
 569 -13 l 1
 464 98 l 1
 401 14 355 -13 276 -13 c 0
 141 -13 35 91 35 223 c 0xe0
 35 313 77 376 173 433 c 1
 125 487 111 516 111 569 c 0
 111 672 192 752 298 752 c 0
 406 752 488 674 488 570 c 0
 488 522 472 477 443 444 c 0
 427 426 411 414 372 389 c 1
 439 314 l 1
 511 433 l 1xd8
289 481 m 1xd8
 345 511 361 529 361 566 c 0
 361 602 336 627 300 627 c 0
 265 627 238 601 238 567 c 0
 238 540 250 519 289 481 c 1xd8
372 198 m 1xe0
 257 322 l 1
 195 294 168 262 168 215 c 0
 168 160 210 119 268 119 c 0
 312 119 338 138 372 198 c 1xe0
EndSplineSet
EndChar

StartChar: section
Encoding: 101 167 102
GlifName: section
Width: 560
Flags: HW
HStem: -157 122<269 315 269 352> 630 122<264 310.5>
VStem: 40 117<342.5 364.5 342.5 377.5> 90 127<568.5 596.5> 377 127<11.5 44> 405 124<266.5 290>
LayerCount: 2
Fore
SplineSet
497 563 m 1xd0
 371 563 l 1
 362 609 336 630 285 630 c 0
 243 630 217 611 217 582 c 0
 217 555 238 531 278 512 c 2
 442 431 l 2
 495 405 529 351 529 292 c 0xd4
 529 238 502 186 454 150 c 1
 489 114 504 79 504 31 c 0
 504 -79 415 -157 289 -157 c 0
 156.877093085 -157 71.0582457224 -75.4872995248 60 55 c 1
 194 55 l 1
 194 -7.56850585799 230.273144295 -35 290 -35 c 0
 340 -35 377 -7 377 30 c 0
 377 58 362 73 304 103 c 2
 141 187 l 2
 73 221 40 274 40 347 c 0xe8
 40 408 63 452 118 493 c 1
 99 522 90 551 90 586 c 0
 90 684 173 752 291 752 c 0
 410 752 481 687 497 563 c 1xd0
345 339 m 2
 196 413 l 1
 168 391 157 375 157 354 c 0xe0
 157 331 174 313 217 291 c 2
 368 215 l 1
 391 231 405 255 405 278 c 0
 405 302 393 315 345 339 c 2
EndSplineSet
EndChar

StartChar: dagger
Encoding: 143 8224 103
GlifName: dagger
Width: 560
Flags: MW
HStem: 436 118<48 211 48 211 344 505> 719 20<211 344 344 344>
VStem: 211 133<-128 436 -128 436 554 739>
LayerCount: 2
Fore
SplineSet
344 739 m 1
 344 554 l 1
 505 554 l 1
 505 436 l 1
 344 436 l 1
 344 -128 l 1
 211 -128 l 1
 211 436 l 1
 48 436 l 1
 48 554 l 1
 211 554 l 1
 211 739 l 1
 344 739 l 1
EndSplineSet
EndChar

StartChar: daggerdbl
Encoding: 144 8225 104
GlifName: daggerdbl
Width: 560
Flags: MW
HStem: 260 118<48 210 48 210 343 505> 473 118<48 210 48 210 343 505> 719 20<210 343 343 343>
VStem: 210 133<-128 260 -128 260 378 473 591 739>
LayerCount: 2
Fore
SplineSet
343 739 m 1
 343 591 l 1
 505 591 l 1
 505 473 l 1
 343 473 l 1
 343 378 l 1
 505 378 l 1
 505 260 l 1
 343 260 l 1
 343 -128 l 1
 210 -128 l 1
 210 260 l 1
 48 260 l 1
 48 378 l 1
 210 378 l 1
 210 473 l 1
 48 473 l 1
 48 591 l 1
 210 591 l 1
 210 739 l 1
 343 739 l 1
EndSplineSet
EndChar

StartChar: asterisk
Encoding: 10 42 105
GlifName: asterisk
Width: 440
Flags: MW
HStem: 719 20<269 269>
LayerCount: 2
Fore
SplineSet
116 706 m 1
 179 738 l 1
 223 652 l 1
 269 739 l 1
 328 703 l 1
 274 620 l 1
 371 626 l 1
 371 554 l 1
 274 559 l 1
 327 479 l 1
 270 441 l 1
 223 529 l 1
 180 441 l 1
 116 472 l 1
 168 561 l 1
 70 554 l 1
 70 625 l 1
 169 620 l 1
 116 706 l 1
EndSplineSet
EndChar

StartChar: quotesingle
Encoding: 7 39 106
GlifName: quotesingle
Width: 220
Flags: MW
HStem: 513 226<74 150 74 150>
VStem: 74 76<513 739>
LayerCount: 2
Fore
SplineSet
150 513 m 1
 74 513 l 1
 74 739 l 1
 150 739 l 1
 150 513 l 1
EndSplineSet
EndChar

StartChar: quotedbl
Encoding: 2 34 107
GlifName: quotedbl
Width: 360
Flags: MW
HStem: 513 226<74 150 74 150 207 283 74 207>
VStem: 74 76<513 739> 207 76<513 739>
LayerCount: 2
Fore
SplineSet
283 513 m 1
 207 513 l 1
 207 739 l 1
 283 739 l 1
 283 513 l 1
150 513 m 1
 74 513 l 1
 74 739 l 1
 150 739 l 1
 150 513 l 1
EndSplineSet
EndChar

StartChar: at
Encoding: 32 64 108
GlifName: at
Width: 740
Flags: HW
HStem: -13 73<357 430.5 357 441.5> 154 83<507.5 599.5> 154 106<331 348.5> 465 112<351 386 301.5 402.5> 694 72<299 458.5 278.5 474>
VStem: 3 71<329.5 466 329.5 487.5> 157 120<326 385.5 326 411> 672 73<366 431 357.5 496.5>
LayerCount: 2
Fore
SplineSet
580 573 m 1x37
 547 278 l 2
 546.50873644 274.069891522 546.241218214 270.327491844 546.241218214 266.816712629 c 0
 546.241218214 248.888210551 553.217666043 237 573 237 c 0
 593.582277542 237 613.108872975 249.366561837 629.295674862 269.999998315 c 0
 654.790387486 302.498297678 672 355.504416772 672 413 c 0
 672 580 558 694 390 694 c 0
 208 694 74 558 74 374 c 0
 74 194.161194407 210.277038499 60 401 60 c 0
 460 60 506 74 550 107 c 1
 596 47 l 1
 542 5 484 -13 399 -13 c 0
 175.715730738 -13 3 149.534162003 3 377 c 0
 3 598 169 766 388 766 c 0
 465.920380576 766 538.34362606 744.316856026 596.999994899 705.67613468 c 0
 689.154202559 644.968233226 745 546.860151311 745 397 c 0
 745 318 723 259 679 213 c 0
 640 175 589 154 534 154 c 0xdf
 481 154 448 172 435 208 c 1
 410 171 375 154 322 154 c 0
 222 154 157 228 157 345 c 0
 157 477 244 577 359 577 c 0
 413 577 444 562 477 519 c 1
 484 573 l 1
 580 573 l 1x37
379 465 m 0
 323 465 277 416 277 355 c 0
 277 297 307 260 355 260 c 0x37
 413 260 455 307 455 374 c 0
 455 430 426 465 379 465 c 0
EndSplineSet
EndChar

StartChar: numbersign
Encoding: 3 35 109
GlifName: numbersign
Width: 560
Flags: MW
HStem: 0 20 233 100<34 131 34 144 234 308 34 221 411 500> 422 99<60 156 60 170 260 333 60 247 437 526> 719 20<199 289 289 289 376 466 466 466>
LayerCount: 2
Fore
SplineSet
199 739 m 1
 289 739 l 1
 260 521 l 1
 347 521 l 1
 376 739 l 1
 466 739 l 1
 437 521 l 1
 526 521 l 1
 526 422 l 1
 423 422 l 1
 411 333 l 1
 500 333 l 1
 500 233 l 1
 398 233 l 1
 366 0 l 1
 276 0 l 1
 308 233 l 1
 221 233 l 1
 190 0 l 1
 99 0 l 1
 131 233 l 1
 34 233 l 1
 34 333 l 1
 144 333 l 1
 156 422 l 1
 60 422 l 1
 60 521 l 1
 170 521 l 1
 199 739 l 1
247 422 m 1
 234 333 l 1
 321 333 l 1
 333 422 l 1
 247 422 l 1
EndSplineSet
EndChar

StartChar: degree
Encoding: 109 176 110
GlifName: degree
Width: 400
Flags: MW
HStem: 380 57<174.5 226 174.5 242> 629 57<175 227>
VStem: 50 56<506.5 559.5 506.5 576.5> 293 57<506 559.5>
LayerCount: 2
Fore
SplineSet
204 686 m 0
 286 686 350 619 350 533 c 0
 350 447 284 380 200 380 c 0
 116 380 50 448 50 534 c 0
 50 619 118 686 204 686 c 0
202 629 m 0
 148 629 106 586 106 533 c 0
 106 480 149 437 200 437 c 0
 252 437 293 479 293 533 c 0
 293 586 252 629 202 629 c 0
EndSplineSet
EndChar

StartChar: plus
Encoding: 11 43 111
GlifName: plus
Width: 600
Flags: MW
HStem: 312 118<51 243 51 243 363 555>
VStem: 243 120<117 312 117 312 430 625>
LayerCount: 2
Fore
SplineSet
243 430 m 1
 243 625 l 1
 363 625 l 1
 363 430 l 1
 555 430 l 1
 555 312 l 1
 363 312 l 1
 363 117 l 1
 243 117 l 1
 243 312 l 1
 51 312 l 1
 51 430 l 1
 243 430 l 1
EndSplineSet
EndChar

StartChar: minus
Encoding: 152 8722 112
GlifName: minus
Width: 600
Flags: MW
HStem: 312 118<51 555 51 555>
LayerCount: 2
Fore
SplineSet
555 430 m 1
 555 312 l 1
 51 312 l 1
 51 430 l 1
 555 430 l 1
EndSplineSet
EndChar

StartChar: divide
Encoding: 124 247 113
GlifName: divide
Width: 600
Flags: MW
HStem: 73 131<235 370 235 370> 312 118<51 555 51 555> 538 131<235 370 235 370>
VStem: 235 135<73 204 73 204 538 669>
LayerCount: 2
Fore
SplineSet
370 538 m 1
 235 538 l 1
 235 669 l 1
 370 669 l 1
 370 538 l 1
370 73 m 1
 235 73 l 1
 235 204 l 1
 370 204 l 1
 370 73 l 1
555 430 m 1
 555 312 l 1
 51 312 l 1
 51 430 l 1
 555 430 l 1
EndSplineSet
EndChar

StartChar: equal
Encoding: 29 61 114
GlifName: equal
Width: 600
Flags: MW
HStem: 210 118<51 555 51 555> 405 118<51 555 51 555>
LayerCount: 2
Fore
SplineSet
555 523 m 1
 555 405 l 1
 51 405 l 1
 51 523 l 1
 555 523 l 1
555 328 m 1
 555 210 l 1
 51 210 l 1
 51 328 l 1
 555 328 l 1
EndSplineSet
EndChar

StartChar: trademark
Encoding: 151 8482 115
GlifName: trademark
Width: 1000
Flags: MW
HStem: 664 75<71 207 71 424 288 424 288 288>
VStem: 207 81<345 664 345 664> 454 81<345 631 345 739> 848 81<345 632 632 632>
LayerCount: 2
Fore
SplineSet
929 739 m 1
 929 345 l 1
 848 345 l 1
 848 632 l 1
 716 345 l 1
 663 345 l 1
 535 631 l 1
 535 345 l 1
 454 345 l 1
 454 739 l 1
 575 739 l 1
 689 482 l 1
 811 739 l 1
 929 739 l 1
424 739 m 1
 424 664 l 1
 288 664 l 1
 288 345 l 1
 207 345 l 1
 207 664 l 1
 71 664 l 1
 71 739 l 1
 424 739 l 1
EndSplineSet
EndChar

StartChar: paragraph
Encoding: 115 182 116
GlifName: paragraph
Width: 600
Flags: MW
HStem: 632 107<342 426 342 342>
VStem: 241 101<-128 330 330 330> 426 101<-128 632 632 632>
LayerCount: 2
Fore
SplineSet
241 -128 m 1
 241 330 l 1
 119 332 37 414 37 533 c 0
 37 610 73 675 134 708 c 0
 172 729 231 739 309 739 c 2
 527 739 l 1
 527 -128 l 1
 426 -128 l 1
 426 632 l 1
 342 632 l 1
 342 -128 l 1
 241 -128 l 1
EndSplineSet
EndChar

StartChar: currency
Encoding: 98 164 117
GlifName: currency
Width: 560
Flags: MW
HStem: 153 120<258.5 303> 526 120<257 303.5 257 317.5>
VStem: 33 120<375.5 424.5> 407 122<374 424 374 433.5>
LayerCount: 2
Fore
SplineSet
27 574 m 1
 107 654 l 1
 152 610 l 1
 193 635 234 646 280 646 c 0
 327 646 369 634 412 610 c 1
 457 653 l 1
 534 572 l 1
 492 529 l 1
 521 479 529 449 529 399 c 0
 529 349 520 317 491 271 c 1
 533 228 l 1
 456 148 l 1
 412 190 l 1
 372 166 325 153 281 153 c 0
 236 153 191 166 150 190 c 1
 106 148 l 1
 27 229 l 1
 69 272 l 1
 40 327 33 351 33 400 c 0
 33 449 40 474 69 529 c 1
 27 574 l 1
284 526 m 0
 211 526 153 470 153 400 c 0
 153 331 211 273 281 273 c 0
 351 273 407 329 407 399 c 0
 407 468 351 526 284 526 c 0
EndSplineSet
EndChar

StartChar: quotesinglbase
Encoding: 139 8218 118
GlifName: quotesinglbase
Width: 354
VWidth: 0
Flags: HMW
LayerCount: 2
Fore
SplineSet
69 -67 m 1
 157 126 l 1
 271 126 l 1
 183 -67 l 1
 69 -67 l 1
EndSplineSet
EndChar

StartChar: quoteright
Encoding: 138 8217 119
GlifName: quoteright
Width: 351
VWidth: 0
Flags: HMW
HStem: 719 20<179 253 253 253>
LayerCount: 2
Fore
SplineSet
72 546 m 1
 160 739 l 1
 274 739 l 1
 186 546 l 1
 72 546 l 1
EndSplineSet
EndChar

StartChar: braceleft
Encoding: 91 123 120
GlifName: braceleft
Width: 340
Flags: HMW
HStem: 720 20<210.5 265>
VStem: 118 105<11.5 54 54 167 167 177 444 557>
LayerCount: 2
Fore
SplineSet
302 739 m 5
 302 659 l 1
 231 653 223 642 223 557 c 2
 223 434 l 2
 223 356 200 323 133 305 c 1
 199 289 223 255 223 177 c 2
 223 54 l 2
 223 -31 231 -42 302 -48 c 1
 302 -128 l 1
 287 -129 269 -129 261 -129 c 0
 160 -129 118 -88 118 10 c 2
 118 167 l 2
 118 227 93 258 37 265 c 1
 37 346 l 1
 93 353 118 384 118 444 c 2
 118 601 l 2
 118 699 160 740 261 740 c 0
 269 740 287 740 302 739 c 5
EndSplineSet
EndChar

StartChar: ordfeminine
Encoding: 104 170 122
GlifName: ordfeminine
Width: 360
Flags: MW
HStem: 310 70<31 342 31 342> 431 74<162.5 190> 676 74<162.5 194.5 134 208>
VStem: 28 76<566 613 566 636> 272 66<441 482 482 482 700 739 441 739>
LayerCount: 2
Fore
SplineSet
338 739 m 1
 338 441 l 1
 272 441 l 1
 272 482 l 1
 247 449 210 431 170 431 c 0
 90 431 28 501 28 592 c 0
 28 680 93 750 175 750 c 0
 214 750 246 733 272 700 c 1
 272 739 l 1
 338 739 l 1
185 676 m 0
 140 676 104 637 104 589 c 0
 104 543 140 505 185 505 c 0
 230 505 266 543 266 591 c 0
 266 639 231 676 185 676 c 0
31 310 m 1
 31 380 l 1
 342 380 l 1
 342 310 l 1
 31 310 l 1
EndSplineSet
EndChar

StartChar: ordmasculine
Encoding: 119 186 123
GlifName: ordmasculine
Width: 360
Flags: MW
HStem: 311 70<31 338 31 338> 442 74<161 207 161 227> 680 70<163 206.5>
VStem: 31 73<575 621 575 640> 265 73<574 619.5>
LayerCount: 2
Fore
SplineSet
185 750 m 0
 270 750 338 682 338 596 c 0
 338 510 270 442 184 442 c 0
 100 442 31 513 31 599 c 0
 31 681 101 750 185 750 c 0
185 680 m 0
 141 680 104 643 104 599 c 0
 104 551 138 516 184 516 c 0
 230 516 265 551 265 597 c 0
 265 642 228 680 185 680 c 0
31 311 m 1
 31 381 l 1
 338 381 l 1
 338 311 l 1
 31 311 l 1
EndSplineSet
EndChar

StartChar: plusminus
Encoding: 110 177 124
GlifName: plusminus
Width: 600
Flags: MW
HStem: 0 118<51 555 51 555> 340 118<51 243 51 243 363 555>
VStem: 243 120<175 340 175 340 458 653>
LayerCount: 2
Fore
SplineSet
243 458 m 1
 243 653 l 1
 363 653 l 1
 363 458 l 1
 555 458 l 1
 555 340 l 1
 363 340 l 1
 363 175 l 1
 243 175 l 1
 243 340 l 1
 51 340 l 1
 51 458 l 1
 243 458 l 1
555 118 m 1
 555 0 l 1
 51 0 l 1
 51 118 l 1
 555 118 l 1
EndSplineSet
EndChar

StartChar: fraction
Encoding: 150 8260 125
GlifName: fraction
Width: 160
Flags: MW
HStem: 0 20 719 20<185 280 280 280>
LayerCount: 2
Fore
SplineSet
-121 0 m 1
 185 739 l 1
 280 739 l 1
 -26 0 l 1
 -121 0 l 1
EndSplineSet
EndChar

StartChar: percent
Encoding: 5 37 126
GlifName: percent
Width: 860
Flags: W
HStem: -13 107<634 674 634 704> 242 106<634 674> 391 107<182 222 182 252> 646 106<182 222> 719 20<528 631 631 631>
VStem: 21 108<551.5 592.5 551.5 621.5> 276 107<552 592> 473 108<147.5 188.5 147.5 217.5> 728 107<148 188>
LayerCount: 2
Fore
SplineSet
528 739 m 1xcf80
 631 739 l 1
 325 0 l 1
 223 0 l 1
 528 739 l 1xcf80
655 348 m 0
 753 348 835 266 835 168 c 0
 835 68 754 -13 654 -13 c 0
 554 -13 473 68 473 167 c 0
 473 268 553 348 655 348 c 0
654 242 m 0
 614 242 581 209 581 168 c 0
 581 127 614 94 654 94 c 0
 694 94 728 128 728 168 c 0
 728 208 694 242 654 242 c 0
203 752 m 0x3780
 301 752 383 670 383 572 c 0
 383 472 302 391 202 391 c 0
 102 391 21 472 21 571 c 0
 21 672 101 752 203 752 c 0x3780
202 646 m 0
 162 646 129 613 129 572 c 0
 129 531 162 498 202 498 c 0
 242 498 276 532 276 572 c 0
 276 612 242 646 202 646 c 0
EndSplineSet
EndChar

StartChar: perthousand
Encoding: 147 8240 127
GlifName: perthousand
Width: 1280
Flags: W
HStem: -13 107<634 674 634 704 1047 1087> 242 106<634 674 1047 1087> 391 107<182 222 182 252> 646 106<182 222> 719 20<528 631 631 631>
VStem: 21 108<551.5 592.5 551.5 621.5> 276 107<552 592> 473 108<147.5 188.5 147.5 217.5> 728 107<148 188> 886 108<147.5 188.5 147.5 217.5> 1141 107<148 188>
LayerCount: 2
Fore
SplineSet
528 739 m 1xcfe0
 631 739 l 1
 325 0 l 1
 223 0 l 1
 528 739 l 1xcfe0
1068 348 m 0
 1166 348 1248 266 1248 168 c 0
 1248 68 1167 -13 1067 -13 c 0
 967 -13 886 68 886 167 c 0
 886 268 966 348 1068 348 c 0
1067 242 m 0
 1027 242 994 209 994 168 c 0
 994 127 1027 94 1067 94 c 0
 1107 94 1141 128 1141 168 c 0
 1141 208 1107 242 1067 242 c 0
655 348 m 0
 753 348 835 266 835 168 c 0
 835 68 754 -13 654 -13 c 0
 554 -13 473 68 473 167 c 0
 473 268 553 348 655 348 c 0
654 242 m 0
 614 242 581 209 581 168 c 0
 581 127 614 94 654 94 c 0
 694 94 728 128 728 168 c 0
 728 208 694 242 654 242 c 0
203 752 m 0x37e0
 301 752 383 670 383 572 c 0
 383 472 302 391 202 391 c 0
 102 391 21 472 21 571 c 0
 21 672 101 752 203 752 c 0x37e0
202 646 m 0
 162 646 129 613 129 572 c 0
 129 531 162 498 202 498 c 0
 242 498 276 532 276 572 c 0
 276 612 242 646 202 646 c 0
EndSplineSet
EndChar

StartChar: backslash
Encoding: 60 92 128
GlifName: backslash
Width: 640
Flags: MW
HStem: 0 20 719 20<84 178 178 178>
LayerCount: 2
Fore
SplineSet
503 0 m 1
 409 0 l 1
 84 739 l 1
 178 739 l 1
 503 0 l 1
EndSplineSet
EndChar

StartChar: dieresis
Encoding: 102 168 129
GlifName: dieresis
Width: 500
Flags: MW
HStem: 630 133<74 207 74 207 284 417 74 284>
VStem: 74 133<630 763 630 763> 284 133<630 763 630 763>
LayerCount: 2
Fore
SplineSet
74 630 m 1
 74 763 l 1
 207 763 l 1
 207 630 l 1
 74 630 l 1
284 630 m 1
 284 763 l 1
 417 763 l 1
 417 630 l 1
 284 630 l 1
EndSplineSet
EndChar

StartChar: dotaccent
Encoding: 130 729 130
GlifName: dotaccent
Width: 280
Flags: MW
HStem: 630 133<74 207 74 207>
VStem: 74 133<630 763 630 763>
LayerCount: 2
Fore
SplineSet
74 630 m 1
 74 763 l 1
 207 763 l 1
 207 630 l 1
 74 630 l 1
EndSplineSet
EndChar

StartChar: ring
Encoding: 131 730 131
GlifName: ring
Width: 360
Flags: MW
HStem: 610 67<167 187 167 205> 749 67<167 187>
VStem: 74 67<703 723 703 741.5> 213 67<703 723>
LayerCount: 2
Fore
SplineSet
178 816 m 0
 234 816 280 769 280 713 c 0
 280 656 233 610 177 610 c 0
 120 610 74 656 74 713 c 0
 74 770 120 816 178 816 c 0
177 749 m 0
 157 749 141 733 141 713 c 0
 141 693 157 677 177 677 c 0
 197 677 213 693 213 713 c 0
 213 733 197 749 177 749 c 0
EndSplineSet
EndChar

StartChar: acute
Encoding: 113 180 132
GlifName: acute
Width: 420
Flags: W
LayerCount: 2
Fore
SplineSet
125 613 m 1
 74 691 l 1
 298 825 l 1
 352 733 l 1
 125 613 l 1
EndSplineSet
EndChar

StartChar: grave
Encoding: 64 96 133
GlifName: grave
Width: 420
Flags: W
LayerCount: 2
Fore
SplineSet
74 737 m 1
 131 825 l 1
 353 692 l 1
 300 613 l 1
 74 737 l 1
EndSplineSet
EndChar

StartChar: circumflex
Encoding: 127 710 134
GlifName: circumflex
Width: 540
Flags: W
LayerCount: 2
Fore
SplineSet
74 630 m 1
 221 768 l 1
 328 768 l 1
 473 630 l 1
 328 630 l 1
 275 694 l 1
 221 630 l 1
 74 630 l 1
EndSplineSet
EndChar

StartChar: caron
Encoding: 128 711 135
GlifName: caron
Width: 540
Flags: W
LayerCount: 2
Fore
SplineSet
74 768 m 1
 221 768 l 1
 275 704 l 1
 328 768 l 1
 473 768 l 1
 328 630 l 1
 221 630 l 1
 74 768 l 1
EndSplineSet
EndChar

StartChar: breve
Encoding: 129 728 136
GlifName: breve
Width: 480
Flags: MW
HStem: 630 96<223.5 257.5 223.5 287.5>
LayerCount: 2
Fore
SplineSet
74 769 m 1
 172 769 l 1
 184 740 207 726 240 726 c 0
 275 726 297 741 302 769 c 1
 404 769 l 1
 401 686 335 630 240 630 c 0
 141 630 80 681 74 769 c 1
EndSplineSet
EndChar

StartChar: tilde
Encoding: 133 732 137
GlifName: tilde
Width: 480
Flags: HW
HStem: 636 102<277.5 328.5> 661 102<185.5 187.5 156 206>
LayerCount: 2
Fore
SplineSet
128 636 m 6x40
 74 716 l 1
 109 751 135 763 177 763 c 0x40
 198 763 208 761 237 749 c 0
 257 741 271 738 284 738 c 0
 310 738 330 748 351 772 c 1
 405 691 l 1
 373 652 346 636 311 636 c 0x80
 296 636 278 640 252 649 c 0
 224 659 214 661 198 661 c 0
 174.863221118 661 167.143385703 658.430509422 136 640.608918061 c 6
 128 636 l 6x40
EndSplineSet
EndChar

StartChar: hungarumlaut
Encoding: 134 733 138
GlifName: hungarumlaut
Width: 700
Flags: W
LayerCount: 2
Fore
SplineSet
74 682 m 1
 284 825 l 1
 346 745 l 1
 124 613 l 1
 74 682 l 1
357 682 m 1
 568 825 l 1
 629 745 l 1
 408 613 l 1
 357 682 l 1
EndSplineSet
EndChar

StartChar: cedilla
Encoding: 117 184 139
GlifName: cedilla
Width: 340
Flags: MW
HStem: -251 55<164.5 183.5 164.5 202.5> -106 55<174.5 184>
VStem: 212 58<-162.5 -138>
LayerCount: 2
Fore
SplineSet
119 0 m 1
 171 0 l 1
 150 -58 l 1
 163 -53 170 -51 179 -51 c 0
 228 -51 270 -97 270 -152 c 0
 270 -211 231 -251 174 -251 c 0
 123 -251 82 -216 74 -166 c 1
 135 -166 l 1
 144 -186 156 -196 173 -196 c 0
 194 -196 212 -175 212 -150 c 0
 212 -126 195 -106 173 -106 c 0
 159 -106 149 -113 135 -133 c 1
 83 -107 l 1
 119 0 l 1
EndSplineSet
EndChar

StartChar: ogonek
Encoding: 132 731 140
GlifName: ogonek
Width: 340
Flags: MW
HStem: -204 81<200.5 201>
VStem: 74 91<-93 -83.5>
LayerCount: 2
Fore
SplineSet
160 0 m 1
 230 0 l 1
 180 -36 165 -54 165 -81 c 0
 165 -105 186 -123 215 -123 c 0
 227 -123 236 -121 256 -113 c 1
 256 -190 l 1
 234 -199 212 -204 190 -204 c 0
 121 -204 74 -164 74 -105 c 0
 74 -62 103 -27 160 0 c 1
EndSplineSet
EndChar

StartChar: macron
Encoding: 108 175 141
GlifName: macron
Width: 420
Flags: MW
HStem: 648 100<74 351 74 351>
LayerCount: 2
Fore
SplineSet
74 648 m 1
 74 748 l 1
 351 748 l 1
 351 648 l 1
 74 648 l 1
EndSplineSet
EndChar

StartChar: commaaccent
Encoding: 159 -1 142
GlifName: commaaccent
Width: 351
Flags: MW
HStem: -245 192<71 233 129 175>
LayerCount: 2
Fore
SplineSet
71 -245 m 1
 129 -53 l 1
 233 -53 l 1
 175 -245 l 1
 71 -245 l 1
EndSplineSet
EndChar

StartChar: copyright
Encoding: 103 169 143
GlifName: copyright
Width: 740
Flags: MW
HStem: -13 80<289 456.5 289 479> 157 93<346 399 346 429.5> 495 93<345.5 399.5> 675 77<289 458.5>
VStem: -12 80<286.5 454 286.5 475> 161 105<339 408 339 433> 679 80<284.5 452.5>
LayerCount: 2
Fore
SplineSet
477 320 m 1
 588 320 l 1
 564 222 480 157 379 157 c 0
 258 157 161 253 161 373 c 0
 161 493 256 588 377 588 c 0
 480 588 572 515 588 422 c 1
 477 422 l 1
 461 467 422 495 377 495 c 0
 314 495 266 442 266 374 c 0
 266 304 315 250 377 250 c 0
 421 250 455 274 477 320 c 1
373 752 m 0
 589 752 759 581 759 365 c 0
 759 159 584 -13 374 -13 c 0
 161 -13 -12 159 -12 370 c 0
 -12 580 161 752 373 752 c 0
373 675 m 0
 205 675 68 538 68 370 c 0
 68 203 205 67 373 67 c 0
 540 67 679 203 679 366 c 0
 679 539 544 675 373 675 c 0
EndSplineSet
EndChar

StartChar: registered
Encoding: 107 174 144
GlifName: registered
Width: 740
Flags: MW
HStem: -13 80<289 456.5 289 479> 486 93<330 360 360 368 330 330> 675 77<289 458.5>
VStem: -12 80<286.5 454 286.5 475> 229 101<166 300 372 486> 436 101<411.5 448> 679 80<284.5 452.5>
LayerCount: 2
Fore
SplineSet
229 166 m 1
 229 579 l 1
 360 579 l 2
 429 579 458 572 486 549 c 0
 518 524 537 481 537 437 c 0
 537 369 497 318 435 307 c 1
 547 166 l 1
 426 166 l 1
 330 300 l 1
 330 166 l 1
 229 166 l 1
330 372 m 1
 367 372 l 2
 411 372 436 393 436 430 c 0
 436 466 412 486 368 486 c 2
 330 486 l 1
 330 372 l 1
373 752 m 0
 589 752 759 581 759 365 c 0
 759 159 584 -13 374 -13 c 0
 161 -13 -12 159 -12 370 c 0
 -12 580 161 752 373 752 c 0
373 675 m 0
 205 675 68 538 68 370 c 0
 68 203 205 67 373 67 c 0
 540 67 679 203 679 366 c 0
 679 539 544 675 373 675 c 0
EndSplineSet
EndChar

StartChar: bullet
Encoding: 145 8226 146
GlifName: bullet
Width: 600
Flags: W
LayerCount: 2
Fore
SplineSet
302 484 m 0
 395 484 471 409 471 316 c 0
 471 222 396 147 300 147 c 0
 210 147 134 224 134 316 c 0
 134 408 210 484 302 484 c 0
EndSplineSet
EndChar

StartChar: lozenge
Encoding: 156 9674 147
GlifName: lozenge
Width: 494
Flags: MW
HStem: 0 20 720 20<214 277 277 277>
LayerCount: 2
Fore
SplineSet
209 0 m 1
 18 377 l 1
 214 740 l 1
 277 740 l 1
 466 374 l 1
 269 0 l 1
 209 0 l 1
240 117 m 1
 373 374 l 1
 245 625 l 1
 111 376 l 1
 240 117 l 1
EndSplineSet
EndChar

StartChar: notequal
Encoding: 153 8800 148
GlifName: notequal
Width: 600
Flags: MW
HStem: 210 118<51 121 51 204 348 555 51 265> 405 118<51 258 51 341 485 555 51 402>
LayerCount: 2
Fore
SplineSet
402 405 m 1
 348 328 l 1
 555 328 l 1
 555 210 l 1
 265 210 l 1
 189 101 l 1
 93 169 l 1
 121 210 l 1
 51 210 l 1
 51 328 l 1
 204 328 l 1
 258 405 l 1
 51 405 l 1
 51 523 l 1
 341 523 l 1
 417 632 l 1
 513 564 l 1
 485 523 l 1
 555 523 l 1
 555 405 l 1
 402 405 l 1
EndSplineSet
EndChar

StartChar: less
Encoding: 28 60 149
GlifName: less
Width: 600
Flags: W
LayerCount: 2
Fore
SplineSet
558 582 m 1
 558 465 l 1
 217 308 l 1
 558 149 l 1
 558 33 l 1
 49 258 l 1
 49 356 l 1
 558 582 l 1
EndSplineSet
EndChar

StartChar: greater
Encoding: 30 62 150
GlifName: greater
Width: 600
Flags: W
LayerCount: 2
Fore
SplineSet
48 33 m 1
 48 149 l 1
 390 306 l 1
 48 465 l 1
 48 582 l 1
 557 356 l 1
 557 258 l 1
 48 33 l 1
EndSplineSet
EndChar

StartChar: lessequal
Encoding: 154 8804 151
GlifName: lessequal
Width: 600
Flags: MW
HStem: 0 118<45 549 45 549>
LayerCount: 2
Fore
SplineSet
45 476 m 1
 549 711 l 1
 549 581 l 1
 226 431 l 1
 549 280 l 1
 549 150 l 1
 45 385 l 1
 45 476 l 1
549 118 m 1
 549 0 l 1
 45 0 l 1
 45 118 l 1
 549 118 l 1
EndSplineSet
EndChar

StartChar: greaterequal
Encoding: 155 8805 152
GlifName: greaterequal
Width: 600
Flags: MW
HStem: 0 118<51 555 51 555>
LayerCount: 2
Fore
SplineSet
555 476 m 1
 555 385 l 1
 51 150 l 1
 51 280 l 1
 374 431 l 1
 51 581 l 1
 51 711 l 1
 555 476 l 1
555 118 m 1
 555 0 l 1
 51 0 l 1
 51 118 l 1
 555 118 l 1
EndSplineSet
EndChar

StartChar: logicalnot
Encoding: 106 172 153
GlifName: logicalnot
Width: 600
Flags: MW
HStem: 359 114<51 441 51 555>
VStem: 441 114<182 359 359 359>
LayerCount: 2
Fore
SplineSet
51 473 m 1
 555 473 l 1
 555 182 l 1
 441 182 l 1
 441 359 l 1
 51 359 l 1
 51 473 l 1
EndSplineSet
EndChar

StartChar: asciicircum
Encoding: 62 94 154
GlifName: asciicircum
Width: 600
Flags: MW
HStem: 719 20<242 364 364 364>
LayerCount: 2
Fore
SplineSet
167 313 m 1
 63 363 l 1
 242 739 l 1
 364 739 l 1
 543 363 l 1
 439 313 l 1
 303 589 l 1
 167 313 l 1
EndSplineSet
EndChar

StartChar: bar
Encoding: 92 124 155
GlifName: bar
Width: 600
Flags: MW
HStem: 0 20 719 20<243 362 362 362>
VStem: 243 119<0 739 0 739>
LayerCount: 2
Fore
SplineSet
362 739 m 1
 362 0 l 1
 243 0 l 1
 243 739 l 1
 362 739 l 1
EndSplineSet
EndChar

StartChar: brokenbar
Encoding: 100 166 156
GlifName: brokenbar
Width: 600
Flags: MW
HStem: 0 20 719 20<243 362 362 362>
VStem: 243 119<0 302 0 302 437 739>
LayerCount: 2
Fore
SplineSet
362 739 m 1
 362 437 l 1
 243 437 l 1
 243 739 l 1
 362 739 l 1
362 302 m 1
 362 0 l 1
 243 0 l 1
 243 302 l 1
 362 302 l 1
EndSplineSet
EndChar

StartChar: underscore
Encoding: 63 95 157
GlifName: underscore
Width: 500
Flags: MW
HStem: -138 90<0 500 0 500>
LayerCount: 2
Fore
SplineSet
0 -48 m 1
 500 -48 l 1
 500 -138 l 1
 0 -138 l 1
 0 -48 l 1
EndSplineSet
EndChar

StartChar: asciitilde
Encoding: 94 126 158
GlifName: asciitilde
Width: 600
Flags: HW
HStem: 230 117<405.5 425.5 405.5 437> 295 117<192 208.5>
LayerCount: 2
Fore
SplineSet
491 421 m 1x80
 555 347 l 1
 503 261 464 230 410 230 c 0x80
 390 230 355 239 319 254 c 2
 265 276 l 2
 230 291 216 295 201 295 c 0
 183 295 168 288 154 273 c 2
 154 273 133.399355576 246.332259294 114 214 c 1
 51 289 l 1
 88.9274955972 351.201092779 120.054252408 412 199 412 c 0x40
 222 412 252 406 276 396 c 2
 343 369 l 2
 397 347 397 347 414 347 c 0
 437 347 465 374 491 421 c 1x80
EndSplineSet
EndChar

StartChar: mu
Encoding: 114 181 159
GlifName: mu
Width: 576
Flags: W
HStem: -185 185 -13 122<286.5 325 286.5 325.5> 534 20<54 187 187 187 414 547 547 547>
VStem: 54 133<-185 52 252.5 293 293 554> 414 133<293 554 0 554>
LayerCount: 2
Fore
SplineSet
187 52 m 1x58
 187 -185 l 1
 54 -185 l 1x98
 54 554 l 1
 187 554 l 1
 187 293 l 2
 187 212 190 194 209 164 c 0
 232 129 267 109 306 109 c 0x78
 344 109 378 128 396 160 c 0
 409 184 414 220 414 293 c 2
 414 554 l 1
 547 554 l 1
 547 0 l 1
 424 0 l 1xb8
 424 53 l 1
 384 5 351 -13 300 -13 c 0
 254 -13 220 6 187 52 c 1x58
EndSplineSet
EndChar

StartChar: comma.heavy
Encoding: 160 -1 160
GlifName: comma.heavy
Width: 280
Flags: HW
HStem: 0 128<72 205 72 130>
LayerCount: 2
Fore
SplineSet
72 -73 m 5
 114 -65 131 -49 131 -17 c 6
 131 0 l 5
 72 0 l 5
 72 128 l 5
 205 128 l 5
 205 -7 l 6
 205 -64 185 -100 141 -124 c 4
 119 -137 102 -140 72 -140 c 5
 72 -73 l 5
EndSplineSet
EndChar

StartChar: semicolon.heavy
Encoding: 161 -1 161
Width: 280
Flags: HW
HStem: 0 128<72 205 72 131> 369 133<72 205 72 205>
VStem: 72 133<-140 -7 -73 -7 0 128 369 502>
LayerCount: 2
Fore
SplineSet
72 -73 m 5
 114 -65 131 -49 131 -17 c 2
 131 0 l 1
 72 0 l 1
 72 128 l 1
 205 128 l 1
 205 -7 l 2
 205 -56 193 -84 162 -110 c 0
 138 -131 109 -140 72 -140 c 1
 72 -73 l 5
72 369 m 1
 72 502 l 1
 205 502 l 1
 205 369 l 1
 72 369 l 1
EndSplineSet
EndChar

StartChar: quoteleft.heavy
Encoding: 162 -1 162
Width: 280
Flags: HW
HStem: 466 133<147 205 147 205 72 205> 719 20<187 205>
LayerCount: 2
Fore
SplineSet
205 667 m 5
 163 659 146 643 146 611 c 6
 146 594 l 5
 205 594 l 5
 205 466 l 5
 72 466 l 5
 72 601 l 6
 72 658 92 694 136 718 c 4
 158 731 175 734 205 734 c 5
 205 667 l 5
EndSplineSet
EndChar

StartChar: quoteright.heavy
Encoding: 163 -1 163
Width: 280
Flags: HW
HStem: 611 128<72 205 72 130>
LayerCount: 2
Fore
SplineSet
72 533 m 1
 114 541 131 557 131 589 c 2
 131 606 l 1
 72 606 l 1
 72 734 l 1
 205 734 l 1
 205 599 l 2
 205 542 185 506 141 482 c 0
 119 469 102 466 72 466 c 1
 72 533 l 1
EndSplineSet
EndChar

StartChar: quotesinglbase.heavy
Encoding: 164 -1 164
Width: 280
Flags: HW
HStem: 0 128<72 205 72 130>
LayerCount: 2
Fore
SplineSet
70 -73 m 1
 112 -65 129 -49 129 -17 c 2
 129 0 l 1
 70 0 l 1
 70 128 l 1
 203 128 l 1
 203 -7 l 2
 203 -64 183 -100 139 -124 c 0
 117 -137 100 -140 70 -140 c 1
 70 -73 l 1
EndSplineSet
EndChar

StartChar: quotedblleft.heavy
Encoding: 165 -1 165
Width: 480
Flags: HW
HStem: 466 133<147 205 147 205 72 205> 719 20<187 205>
LayerCount: 2
Fore
SplineSet
203 594 m 5
 203 466 l 1
 70 466 l 1
 70 601 l 2
 70 658 90 694 134 718 c 0
 156 731 173 734 203 734 c 1
 203 667 l 1
 161 659 144 643 144 611 c 2
 144 594 l 1
 203 594 l 5
410 594 m 1
 410 466 l 1
 277 466 l 1
 277 601 l 2
 277 658 297 694 341 718 c 0
 363 731 380 734 410 734 c 1
 410 667 l 1
 368 659 351 643 351 611 c 2
 351 594 l 1
 410 594 l 1
EndSplineSet
EndChar

StartChar: quotedblright.heavy
Encoding: 166 -1 166
Width: 480
Flags: HW
HStem: 466 133<147 205 147 205 72 205> 719 20<187 205>
LayerCount: 2
Fore
SplineSet
70 606 m 5
 70 734 l 5
 203 734 l 5
 203 599 l 6
 203 542 183 506 139 482 c 4
 117 469 100 466 70 466 c 5
 70 533 l 5
 112 541 129 557 129 589 c 6
 129 606 l 5
 70 606 l 5
277 606 m 5
 277 734 l 5
 410 734 l 5
 410 599 l 6
 410 542 390 506 346 482 c 4
 324 469 307 466 277 466 c 5
 277 533 l 5
 319 541 336 557 336 589 c 6
 336 606 l 5
 277 606 l 5
EndSplineSet
EndChar

StartChar: quotedblbase.heavy
Encoding: 167 -1 167
Width: 480
Flags: HW
HStem: 0 128<70 203 70 128 277 335 70 277>
LayerCount: 2
Fore
SplineSet
70 -73 m 1
 112 -65 129 -49 129 -17 c 2
 129 0 l 1
 70 0 l 1
 70 128 l 1
 203 128 l 1
 203 -7 l 2
 203 -64 183 -100 139 -124 c 0
 117 -137 100 -140 70 -140 c 1
 70 -73 l 1
277 -73 m 1
 319 -65 336 -49 336 -17 c 2
 336 0 l 1
 277 0 l 1
 277 128 l 1
 410 128 l 1
 410 -7 l 2
 410 -64 390 -100 346 -124 c 0
 324 -137 307 -140 277 -140 c 1
 277 -73 l 1
EndSplineSet
EndChar
